<svg id="Capa_1" data-name="Capa 1" xmlns="http://www.w3.org/2000/svg" viewBox="0 0 946.92903 946.98106"><defs><style>.cls-1{fill:#fff;}.cls-2{fill:#3d68ae;}.cls-3{fill:#e6f3fc;}.cls-4{fill:#272525;}.cls-5{fill:#cb2229;}.cls-6{fill:#295ba5;}.cls-7{fill:#ccc;}.cls-8{fill:#f1c930;}</style></defs><title>doe</title><path class="cls-1" d="M974,494.30512c-.06523,261.43878-212.0922,473.38566-473.57968,473.33777C238.92126,967.562,27.00658,755.54244,27.071,494.0632,27.16016,232.52782,239.16731,20.60158,500.67048,20.66185,762.14146,20.71387,974.05613,232.75405,974,494.30512Z" transform="translate(-27.07097 -20.66184)"/><path class="cls-2" d="M961.02989,494.30093c-.06344,254.27692-206.28214,460.41773-460.60643,460.37115-254.33553-.0787-460.445-206.29017-460.38238-460.60644.08673-254.37087,206.28616-460.4916,460.62571-460.433C754.975,33.68325,961.0845,239.9148,961.02989,494.30093Z" transform="translate(-27.07097 -20.66184)"/><path class="cls-3" d="M898.80918,440.51138c-.0787,215.93555-178.426,390.92705-398.31906,390.89573-219.95478-.03855-398.189-175.16416-398.12633-391.06035.04657-215.9516,178.35229-390.98647,398.27168-390.93588C720.58623,49.45425,898.80918,224.55175,898.80918,440.51138Z" transform="translate(-27.07097 -20.66184)"/><path class="cls-1" d="M74.488,611.62011l-.30383-.14336q-.731-2.63544-2.576-8.01863c-1.24063-3.57923-2.19961-6.2453-2.87653-7.97491l.20857-.2855,1.73483-.5945.35513.15051a26.68645,26.68645,0,0,0,1.28194,2.97373,1.20451,1.20451,0,0,0,1.29033.54321,60.05713,60.05713,0,0,0,8.21486-2.35337l13.82219-4.59919a81.11071,81.11071,0,0,0,7.98107-3.03926,1.11312,1.11312,0,0,0,.681-1.17311,24.58925,24.58925,0,0,0-.79675-3.13871l.20392-.36494,1.7979-.61084.30087.20605c.49355,1.69341,1.3216,4.34647,2.532,8.01216,1.282,3.66366,2.21679,6.29882,2.89128,7.88711l-.161.31681-1.79382.61158-.33578-.15887c-.725-1.73681-1.12984-2.68641-1.27287-2.91928a1.192,1.192,0,0,0-1.28247-.5586,54.0788,54.0788,0,0,0-8.20756,2.35324l-13.84169,4.59873a61.88682,61.88682,0,0,0-7.99643,3.04033,1.255,1.255,0,0,0-.69706,1.18864c.06045.29693.28139,1.35974.801,3.14667l-.18783.35663Z" transform="translate(-27.07097 -20.66184)"/><path class="cls-1" d="M104.62437,649.35361l-.363-.13511c-.69856-.92928-1.33358-1.389-1.82884-1.38047a30.64851,30.64851,0,0,0-5.278,1.80885c-1.45987.62109-2.84435,1.28023-4.18849,1.97A46.68,46.68,0,0,1,83.35767,637.649c-2.53666-5.972-2.84137-11.55925-.97227-16.706,1.85723-5.0831,5.68473-8.87409,11.55926-11.25784,7.69713-3.16047,14.52076-2.10133,20.54153,3.12883a28.45793,28.45793,0,0,1,7.046,10.55357,40.17509,40.17509,0,0,1,2.526,8.54476,27.41013,27.41013,0,0,1,.57045,6.06132l-.35736.41416a46.71746,46.71746,0,0,0-8.28207,2.13446l-.34473-.2061-.64881-1.47067.1755-.411c.29121-.115.98009-.42489,1.91146-.89552a19.93893,19.93893,0,0,0,2.05089-1.09469,9.41416,9.41416,0,0,0,1.02821-4.8881,18.76191,18.76191,0,0,0-1.49324-6.62532q-3.73789-8.94837-12.42164-9.355a20.17539,20.17539,0,0,0-8.48294,1.56526c-4.71974,1.96389-8.14806,4.8075-10.17981,8.56035a13.2693,13.2693,0,0,0-.63474,12.15239,16.37385,16.37385,0,0,0,4.10294,5.76436c1.25482-.36616,2.9136-.99068,4.96865-1.80272a15.40862,15.40862,0,0,0,2.941-1.46261c.28531-.21695.322-.62559.22489-1.2038a38.749,38.749,0,0,0-1.427-4.4306l.14453-.37114,1.64618-.64839.35216.16662c.95512,2.44686,2.01609,5.04772,3.10151,7.69635.657,1.526,1.67409,3.84565,3.03377,6.99073l-.1826.23847Z" transform="translate(-27.07097 -20.66184)"/><path class="cls-1" d="M115.74112,681.18685a60.10446,60.10446,0,0,0-8.36534,3.49325l-.34713-.11129L98.03956,666.7929c-1.48361-2.93894-2.60652-4.9982-3.32446-6.15445l.11159-.39386.68893-.30984.35937-.06964a10.73706,10.73706,0,0,0,2.43,1.29222,14.36744,14.36744,0,0,0,3.40517-1.43927l5.575-2.69986,12.46113-6.25438a60.28129,60.28129,0,0,0,7.50056-4.17631,1.07606,1.07606,0,0,0,.454-1.2471,19.58122,19.58122,0,0,0-1.21456-2.9749l.1406-.36384,1.60716-.83486.41.08691c.76426,1.7514,1.95776,4.22548,3.64061,7.459,1.71674,3.359,3.03047,5.8776,4.03888,7.52279l-.08375.40945-1.71123.782-.35889-.08779c-.95669-1.66215-1.504-2.53058-1.68237-2.74758a1.20576,1.20576,0,0,0-1.35438-.35336,70.52,70.52,0,0,0-7.806,3.48361l-14.68846,7.43c-2.14225,1.07217-4.22523,2.14332-6.20021,3.26l1.688,3.29605c2.44712,4.75839,4.11063,7.585,5.03352,8.43171a.69267.69267,0,0,0,.52431.25763,5.12864,5.12864,0,0,0,1.68406-.29565l3.35448-.9051.38217.07213.73219,1.50136Z" transform="translate(-27.07097 -20.66184)"/><path class="cls-1" d="M132.89709,709.84159a57.63276,57.63276,0,0,0-8.16461,4.05441l-.39853-.07907L114.2453,696.69525c-1.75133-2.87971-3.00694-4.81862-3.79611-5.95838l.08389-.40142.65956-.364.38806-.05407a8.28051,8.28051,0,0,0,2.53189,1.03907,14.2055,14.2055,0,0,0,3.312-1.563l5.32665-3.1036,12.00186-7.06168a59.46465,59.46465,0,0,0,7.21108-4.658,1.16036,1.16036,0,0,0,.3503-1.27664,22.4475,22.4475,0,0,0-1.37639-2.94079l.0651-.36174,1.62119-.91461.37432.08752c.85374,1.62457,2.25758,4.095,4.26747,7.449,1.74465,2.91838,5.1804,8.42838,10.2271,16.6398l-.03721.37733-2.802,1.24014c-.90079.40826-1.64378.78168-2.24618,1.02738l-2.32652,1.16931-.403-.1031-.793-1.35895.08581-.33881c2.12187-1.30714,3.27747-2.14226,3.46042-2.54538.11315-.308-.2639-1.24278-1.03794-2.86068-.74478-1.52444-1.4906-2.92356-2.17733-4.05705-.8492-1.41261-1.70947-2.71579-2.65972-4.00939a55.5106,55.5106,0,0,0-7.051,3.83123l-4.93135,2.81488c.654,1.30593,1.26256,2.33073,1.69605,3.06057l1.86995,3.06642c.88671,1.46738,1.50645,2.20928,1.876,2.25753.3788.11154,1.5517-.38734,3.4657-1.36884l.38134.02476.85842,1.47509-.08024.37807c-1.82335.96467-3.43613,1.94179-4.91224,2.79045-1.605.96091-3.33129,1.9946-5.18662,3.17186l-.36214-.08774-.93263-1.58465.10922-.34644c1.765-1.097,2.775-1.85169,2.96076-2.32554.21838-.46639-.01082-1.30978-.65344-2.65607q-.81141-1.52691-1.744-3.10714c-.726-1.14807-1.347-2.19676-2.02923-3.11829l-7.22665,4.235c-2.06468,1.18809-4.07683,2.454-5.95487,3.679l1.92024,3.19807c2.73766,4.56464,4.61246,7.21494,5.59084,8.07676a1.01422,1.01422,0,0,0,.49616.22678,5.24553,5.24553,0,0,0,1.70959-.41415l3.26278-1.1774.4106.11822.86937,1.405Z" transform="translate(-27.07097 -20.66184)"/><path class="cls-1" d="M154.5337,734.6226a12.95983,12.95983,0,0,1-8.13067,2.43064,13.43025,13.43025,0,0,1-7.10955-2.2148,21.30985,21.30985,0,0,1-5.73569-5.737,25.54114,25.54114,0,0,1-4.29385-10.74954l.27122-.60142a40.22974,40.22974,0,0,0,7.85609-4.46434l.40164.071,1.02108,1.44177-.082.32268-.54454.34671c-.8256.66558-1.9015,1.46077-3.16634,2.59574a7.91139,7.91139,0,0,0-.4576,4.63572,11.65075,11.65075,0,0,0,2.10656,5.25017c2.07837,2.96,4.56436,4.29787,7.443,4.04429a8.89793,8.89793,0,0,0,3.94757-1.49519,5.13033,5.13033,0,0,0,2.4536-5.25,16.02014,16.02014,0,0,0-1.6695-4.50513c-2.17556-4.41771-3.24675-7.59908-3.22846-9.466.11185-2.87325,1.66688-5.33121,4.60067-7.38964a11.57715,11.57715,0,0,1,9.62541-1.99294c3.42911.84291,6.54359,3.18914,9.257,7.06428,2.47293,3.5026,3.92493,6.7248,4.2499,9.63711l-.40575.57161a45.8426,45.8426,0,0,0-6.93629,3.79794l-.38664-.09535-.98907-1.42626.0331-.37725c1.80528-1.30169,2.93508-2.21507,3.41208-2.61523a6.644,6.644,0,0,0,.09233-3.75077,11.64718,11.64718,0,0,0-1.91949-4.31208,8.38358,8.38358,0,0,0-4.99383-3.6399,6.15674,6.15674,0,0,0-5.02438,1.08244,4.945,4.945,0,0,0-2.51563,4.45109c.0368,1.168.85808,3.43643,2.49464,6.76549.18876.34211.65028,1.36944,1.40414,2.94834a13.82534,13.82534,0,0,1,1.03822,2.87673,8.08854,8.08854,0,0,1-.24879,5.24334A10.22285,10.22285,0,0,1,154.5337,734.6226Z" transform="translate(-27.07097 -20.66184)"/><path class="cls-1" d="M158.29866,759.52341l-.3801-.00069c-1.06237-1.527-2.75529-3.76438-5.15919-6.759-2.38436-2.94673-4.17917-5.11248-5.41562-6.42445l.08079-.39333,1.4548-1.139.38987.04791a27.71092,27.71092,0,0,0,2.22178,2.33831,1.22861,1.22861,0,0,0,1.36188.08658,54.91227,54.91227,0,0,0,6.939-4.98265l11.47359-8.97376a68.95745,68.95745,0,0,0,6.48157-5.5,1.12879,1.12879,0,0,0,.18247-1.35246,16.96509,16.96509,0,0,0-1.753-2.699l.04154-.36214,1.47457-1.1699.39393.09442c.973,1.43456,2.68613,3.66437,5.11451,6.66576,2.4208,3.03284,4.19083,5.17493,5.41577,6.47906l-.01283.42429-1.50314,1.11578-.38974-.08726a26.22826,26.22826,0,0,0-2.24938-2.29125,1.254,1.254,0,0,0-1.36594-.1331,66.13005,66.13005,0,0,0-6.91653,4.9662l-11.45233,8.98223a55.905,55.905,0,0,0-6.49848,5.50837,1.18888,1.18888,0,0,0-.23364,1.35254,26.60819,26.60819,0,0,0,1.808,2.68277l-.0326.40857Z" transform="translate(-27.07097 -20.66184)"/><path class="cls-1" d="M188.1495,792.52475l-.36482-.00978c-2.69442-3.02813-4.34836-4.85015-4.89838-5.46072-2.30817-2.49344-4.46506-4.74694-6.50371-6.7824l.03344-.36119,1.25133-1.21345.43187-.00744,1.73157,1.71065c.73779.70934,1.33507.82435,1.81476.39282a9.04223,9.04223,0,0,0,1.36277-2.35345l2.795-5.46789c-1.67968-1.90028-3.41051-3.79969-5.20524-5.73012-.97-1.03384-2.42444-2.59344-4.356-4.63878l-3.3312,1.35126a18.72434,18.72434,0,0,0-4.45739,2.24209c-.49262.43175-.529,1.04439-.03633,1.76518.29257.42627.87968,1.11411,1.72377,2.19027l.00662.37577-1.29159,1.18362-.4214-.04013c-2.20953-2.51843-3.64514-4.11772-4.31643-4.83543-.49-.57226-1.77414-1.91472-3.89355-4.01947l-.00565-.32117,1.32271-1.21548.41319.03224c1.352,1.326,2.46029,1.91094,3.20354,1.78007.73221-.11461,4.67376-1.48441,11.77215-4.14785l18.12644-6.7752c1.4299-.57318,3.50885-1.40893,6.30929-2.46111l2.65943,2.84-15.49893,33.6802c-.56824,1.30369-.73916,2.162-.56555,2.56622a9.77675,9.77675,0,0,0,1.49765,2.17087l-.01271.43152Zm-.89086-22.69179,6.64195-13.96577-14.46706,5.56687c.96738,1.1134,2.27818,2.58873,3.90679,4.31C184.91208,767.41889,186.237,768.77672,187.25864,769.833Z" transform="translate(-27.07097 -20.66184)"/><path class="cls-1" d="M244.185,801.41153a10.86944,10.86944,0,0,1-8.71719,4.22055,13.25,13.25,0,0,1-8.70612-3.22259,13.45647,13.45647,0,0,1-2.30651-2.3995,16.369,16.369,0,0,0,.566-2.1277l.81513-.06142a6.927,6.927,0,0,0,1.35321,1.624,5.79319,5.79319,0,0,0,4.67624,1.378,7.85758,7.85758,0,0,0,4.8904-3.11134c3.34628-3.86142,3.223-7.27115-.2761-10.23884-.46939-.32121-1.37219-.949-2.756-1.8191a76.607,76.607,0,0,0-6.01826,6.62935l-9.47493,10.9553a59.33138,59.33138,0,0,0-5.2584,6.74959,1.10171,1.10171,0,0,0,.08722,1.35585c.08583.12382.98871.98694,2.71835,2.58839l.00745.42314-1.22006,1.41771-.3613.00622c-1.85012-1.7094-4.10871-3.64711-6.80882-5.89125-2.99518-2.53623-5.18391-4.33458-6.58236-5.34578l-.03823-.37522,1.18959-1.34651.40742-.06164a29.11287,29.11287,0,0,0,2.61823,1.83754,1.26773,1.26773,0,0,0,1.37726-.14981,68.70419,68.70419,0,0,0,5.83782-6.26482l9.43877-11.02615a46.705,46.705,0,0,0,5.23948-6.67056,1.11747,1.11747,0,0,0-.02346-1.33286q-.279-.34818-2.27348-2.32216l-.02206-.37631,1.18154-1.34557.4244-.02337c1.30591,1.20154,3.36852,3.03259,6.198,5.43112,1.18762.9835,2.90976,2.38911,5.143,4.22525,2.29266,1.84314,3.575,2.85634,3.889,3.11759,3.86012,3.22812,5.51978,6.29736,5.0124,9.216A8.97836,8.97836,0,0,1,244.185,801.41153Z" transform="translate(-27.07097 -20.66184)"/><path class="cls-1" d="M257.99625,847.763l-.3591.08489a9.05884,9.05884,0,0,0-.8802-.63621c-1.99334-1.4949-3.23832-2.41478-3.70179-2.81481-.81392-.51928-2.08515-1.31261-3.8333-2.3965a5.84681,5.84681,0,0,0,.43381-2.39207l1.046-13.14738.16452-5.50934a9.15408,9.15408,0,0,0-.38481-2.25188l.79871-.57838c.32242.27636.60528.38153.75121.55169a9.46789,9.46789,0,0,0,3.94063,1.712,8.3186,8.3186,0,0,0,3.72655-.71473,8.93788,8.93788,0,0,0,3.60244-3.05865q2.70561-3.74034.79213-7.04134a16.50784,16.50784,0,0,0-5.78512-4.71618c-1.21765,1.37029-3.03088,3.78611-5.5984,7.2735l-8.28833,11.69626a63.502,63.502,0,0,0-4.62188,7.10729,1.204,1.204,0,0,0,.175,1.36157c.20933.21566,1.01087.90784,2.4914,2.10637l.02975.35208-1.0294,1.453-.36763.06175c-1.43867-1.08119-3.75212-2.76736-6.87195-4.95688-3.228-2.24228-5.61863-3.793-7.03912-4.71787l-.09226-.30442,1.10338-1.541.34837-.006c1.62273.92943,2.57546,1.4383,2.82823,1.59056a1.37879,1.37879,0,0,0,1.3704-.3055,62.64809,62.64809,0,0,0,5.20346-6.73339l8.42566-11.78457a55.02712,55.02712,0,0,0,4.637-7.12281,1.225,1.225,0,0,0-.17085-1.35441c-.18558-.208-1.03522-.90743-2.45875-2.05152l-.13465-.40569,1.12749-1.50929.35234-.05345c1.41121,1.08969,3.71356,2.79131,6.85749,5.01174,1.85882,1.278,3.315,2.24882,4.54232,3.0429,2.34639,1.4816,4.03122,2.61316,5.16032,3.40974a20.94388,20.94388,0,0,1,5.22813,4.63179,6.26357,6.26357,0,0,1,1.00922,5.51965,9.12716,9.12716,0,0,1-1.389,2.84785c-2.89438,4.06567-7.23385,5.34836-13.07566,3.77836-.09574,1.75817-.22106,3.63492-.31624,5.42521l-.27522,7.80108c-.163,4.48929-.0512,7.24062.29823,8.17511a3.13609,3.13609,0,0,0,1.20844,1.28916l.04345.43858Z" transform="translate(-27.07097 -20.66184)"/><path class="cls-1" d="M291.11919,856.22106a63.75114,63.75114,0,0,0-5.05868,7.53005l-.39076.08544-17.309-10.08691c-2.85308-1.66081-4.9498-2.754-6.19076-3.39922l-.12094-.31918.377-.68116.31628-.25683a9.90031,9.90031,0,0,0,2.716-.266,11.8264,11.8264,0,0,0,2.09286-3.00133l3.17517-5.23108,6.995-11.94868a70.5028,70.5028,0,0,0,3.98033-7.51951,1.15349,1.15349,0,0,0-.30548-1.34406,23.741,23.741,0,0,0-2.66153-1.85206l-.07807-.37534.92394-1.58449.35505-.084c1.56084,1.0084,3.99306,2.47246,7.39813,4.39765,2.96543,1.76892,8.72734,4.93217,17.14989,9.627l.1851.36547-1.88846,2.43238c-.57307.80179-1.05783,1.40689-1.44085,1.97811l-1.44176,2.11065-.40611.13309-1.37462-.80761-.125-.3665c1.26222-2.163,1.82624-3.47543,1.7563-3.8501-.02948-.33683-.77573-1.02193-2.285-2.05532-1.40777-.94036-2.71495-1.74913-3.88172-2.47438-1.42929-.77534-2.83862-1.52774-4.31815-2.20824a68.7623,68.7623,0,0,0-4.264,6.67785l-2.89654,4.86567c1.2241.84152,2.21837,1.45248,3.00336,1.89355l3.17166,1.76536c1.41923.85343,2.32614,1.25385,2.64125,1.1151.41-.14841,1.24481-1.11936,2.39518-2.94308l.33178-.06836,1.51314.83655.08157.34315c-1.07916,1.75985-2.03523,3.3216-2.88526,4.81085-.96826,1.562-1.9357,3.35121-2.96081,5.27478l-.40286.09368-1.59815-.9138-.05882-.39173c1.05452-1.82207,1.54208-2.95972,1.48215-3.46067-.04-.47-.70242-1.14848-1.94675-1.98242a25.896,25.896,0,0,0-3.01805-1.85395c-1.16632-.69313-2.27573-1.29407-3.29972-1.79368l-4.23482,7.22592c-1.19684,2.09117-2.33147,4.07124-3.37909,6.05784L276.215,854.579c4.62,2.705,7.57532,4.12875,8.83278,4.37375a.64137.64137,0,0,0,.55018-.07212,5.35756,5.35756,0,0,0,1.2567-1.13563l2.302-2.61218.375-.10043,1.442.80645Z" transform="translate(-27.07097 -20.66184)"/><path class="cls-1" d="M322.41727,867.17225a12.86865,12.86865,0,0,1-5.76133,6.09163,13.62188,13.62188,0,0,1-7.32083,1.56131,20.47383,20.47383,0,0,1-7.87774-2.16221,26.581,26.581,0,0,1-9.1317-7.14516l-.03314-.7287a39.03715,39.03715,0,0,0,4.57077-7.74975l.35895-.1395,1.59526.74919.09783.39026-.24826.52232a25.62233,25.62233,0,0,0-1.443,3.88326,7.69175,7.69175,0,0,0,1.88995,4.156,12.085,12.085,0,0,0,4.49595,3.54647c3.26306,1.55979,6.11716,1.47932,8.43456-.20788a8.73025,8.73025,0,0,0,2.73666-3.153,5.30491,5.30491,0,0,0-.51488-5.81087,17.57689,17.57689,0,0,0-3.7339-3.07368c-4.10081-2.73726-6.63464-4.94411-7.55629-6.64621-1.37334-2.53364-1.24551-5.42161.27527-8.67171a11.32887,11.32887,0,0,1,7.3424-6.42486c3.44432-.96929,7.28779-.48611,11.60371,1.59608a21.90287,21.90287,0,0,1,8.55218,6.24515l-.10275.66839a48.81932,48.81932,0,0,0-4.09765,6.71435l-.39044.1007-1.57162-.74157-.16466-.31121a26.6289,26.6289,0,0,0,1.61539-4.01152,6.70493,6.70493,0,0,0-1.74266-3.21719,12.67256,12.67256,0,0,0-3.86459-2.8361,8.24312,8.24312,0,0,0-6.12689-.69446,6.01785,6.01785,0,0,0-3.86648,3.37643,5.05183,5.05183,0,0,0,.07033,5.14467c.60868.99348,2.47606,2.52991,5.56284,4.64129.33268.21354,1.21166.82648,2.70187,1.88269a17.64764,17.64764,0,0,1,2.362,1.952,8.21463,8.21463,0,0,1,2.41745,4.64084A10.3072,10.3072,0,0,1,322.41727,867.17225Z" transform="translate(-27.07097 -20.66184)"/><path class="cls-1" d="M355.87469,880.23633c-1.63356,4.27126-4.96016,6.75973-10.05309,7.59276a17.81939,17.81939,0,0,1-8.65523-1.25491c-1.02584-.37428-1.876-.68974-2.55026-.92872l-6.11546-2.49053c-2.24208-.76938-3.95338-1.32864-5.20232-1.785l-.17119-.2637.32746-.77507.237-.23861a10.3872,10.3872,0,0,0,2.62884-.69663,16.9626,16.9626,0,0,0,1.58788-3.3139l2.23942-5.70169,4.91524-12.95537a62.85335,62.85335,0,0,0,2.70207-8.02358,1.31877,1.31877,0,0,0-.535-1.324,29.04145,29.04145,0,0,0-2.9466-1.34516l-.10128-.35888.644-1.70577.362-.14679c1.46679.6486,4.06268,1.67854,7.81457,3.0492,2.38361.91633,4.55349,1.6476,6.50474,2.32,1.52275.4597,2.79247.93981,3.83779,1.31376,4.82552,1.78427,7.58625,4.05789,8.23589,6.72928a7.30818,7.30818,0,0,1-.31469,4.406,8.15712,8.15712,0,0,1-5.155,4.96719,11.04726,11.04726,0,0,1-3.486.67927,24.96273,24.96273,0,0,1-4.16546-.32022C355.47608,870.65018,357.91244,874.79674,355.87469,880.23633Zm-8.1826-2.13367c1.87628-5.1541.156-8.717-5.24149-10.74206-.71-.23836-1.4562-.50822-2.40082-.78993L335.54729,878.429c-.48589,1.23239-.92252,2.54184-1.3137,3.75654a15.15264,15.15264,0,0,0,2.88948,1.2835,7.529,7.529,0,0,0,6.46488-.174A9.5489,9.5489,0,0,0,347.69209,878.10266Zm5.30476-17.402c1.4685-3.77447.17328-6.39539-3.78313-7.89585a21.90772,21.90772,0,0,0-3.39993-.98477c-.73851,1.73792-1.44374,3.3821-2.00763,4.88971l-2.68726,7.066c.37179.17431,1.178.4817,2.36786.94793,3.12123,1.11486,5.5608.92347,7.25361-.67427A9.19035,9.19035,0,0,0,352.99685,860.70067Z" transform="translate(-27.07097 -20.66184)"/><path class="cls-1" d="M373.5238,898.15227l-.30871.22539c-1.68955-.66164-4.37753-1.52534-8.09968-2.5905-3.64044-1.12922-6.40228-1.89768-8.21027-2.32114l-.10835-.29611.53116-1.7978.37411-.155a30.3132,30.3132,0,0,0,3.10537.6758,1.21935,1.21935,0,0,0,1.2095-.68023,56.46116,56.46116,0,0,0,2.82833-8.04823l4.22657-13.78364a51.43745,51.43745,0,0,0,2.1161-8.18536,1.21616,1.21616,0,0,0-.57393-1.27679c-.20031-.12185-1.22669-.52744-3.003-1.17955l-.18416-.35745.53943-1.78991.34326-.10791c1.64026.58377,4.36439,1.51673,8.09967,2.58969,3.69125,1.10586,6.42933,1.86589,8.14936,2.27561l.18332.26349-.56365,1.79836-.33012.1623c-1.84992-.36009-2.88978-.60884-3.15569-.62755a1.19392,1.19392,0,0,0-1.20909.70271,68.22506,68.22506,0,0,0-2.82159,7.97021l-4.22135,13.84619a67.18871,67.18871,0,0,0-2.15986,8.19415,1.16328,1.16328,0,0,0,.6248,1.25985c.23225.13736,1.20316.52865,2.99905,1.18765l.1805.33422Z" transform="translate(-27.07097 -20.66184)"/><path class="cls-1" d="M420.10517,870.09474a23.76109,23.76109,0,0,0-1.3212,4.02252l-1.09925,4.4508-.33.17033-1.70041-.402-.25208-.341a35.32081,35.32081,0,0,0,.687-4.01963,1.85651,1.85651,0,0,0-1.41723-1.66224c-.37528-.14213-2.02481-.56109-5.04753-1.29374l-3.59864-.78457c-.20738.58346-.80983,3.08043-1.801,7.40328l-3.60827,15.09017a57.58965,57.58965,0,0,0-1.60307,8.26328,1.22547,1.22547,0,0,0,.65619,1.24405c.247.09775,1.27675.46393,3.08316,1.02878l.20659.24783-.4324,1.78-.33685.24113c-1.74282-.55068-4.46782-1.25633-8.22239-2.133-3.82952-.844-6.58858-1.45513-8.30749-1.75484l-.18334-.31088.41291-1.7797.325-.22566a16.6246,16.6246,0,0,0,3.23237.46239,1.06017,1.06017,0,0,0,1.11605-.77179,52.8422,52.8422,0,0,0,2.32355-8.11906l3.58148-15.08972c1.06071-4.37945,1.6439-6.82068,1.6897-7.40216l-3.855-.90626a32.81084,32.81084,0,0,0-5.67748-1.04675,3.48039,3.48039,0,0,0-.68922.2472,11.47354,11.47354,0,0,0-.81973,1.64534c-.32822.96222-.63319,1.8614-.92106,2.85505l-.31016.18606-1.70033-.3948-.23922-.30188,1.04116-4.61365a28.72649,28.72649,0,0,0,.60767-4.003l.25351-.22362c1.075.44411,4.89453,1.41362,11.54163,3.00911l10.86133,2.47146c6.19188,1.43065,10.02093,2.25141,11.65,2.42737Z" transform="translate(-27.07097 -20.66184)"/><path class="cls-1" d="M445.56447,903.68091a70.48711,70.48711,0,0,0-2.03766,8.81209l-.28448.26352-19.792-3.369c-3.27709-.5082-5.658-.81257-7.0472-.93l-.21594-.31755.14059-.77909.15335-.28535a8.407,8.407,0,0,0,2.45274-1.24216,14.84688,14.84688,0,0,0,.866-3.536l1.03606-6.01026,2.305-13.69513a63.297,63.297,0,0,0,.98495-8.4486,1.23081,1.23081,0,0,0-.74437-1.08592,25.33141,25.33141,0,0,0-3.17427-.76056l-.23529-.31.35631-1.85744.26192-.20771c1.84724.43885,4.64416.93925,8.46953,1.548,3.45174.51322,9.96535,1.53835,19.491,2.91962l.2863.30108-.83256,2.90011c-.24973.94561-.47679,1.74948-.65192,2.41189l-.56343,2.45615-.31559.29618-1.59564-.30986-.24017-.3099c.37021-2.40624.46375-3.87443.2427-4.25534A8.08794,8.08794,0,0,0,442.043,876.878a32.998,32.998,0,0,0-4.56515-.97274,38.97593,38.97593,0,0,0-4.81637-.57567,76.512,76.512,0,0,0-1.59166,7.80768l-.94922,5.54615c1.461.3202,2.61144.57508,3.48969.68525l3.59477.56538c1.68237.25374,2.64561.25242,2.89609.0441.30356-.28714.71951-1.479,1.12651-3.54851l.35852-.1636,1.6726.20653.24748.30978c-.42042,1.99909-.74969,3.82474-1.041,5.50034-.28893,1.85627-.53549,3.813-.88222,5.98432l-.29467.14643-1.82038-.25137-.24355-.31707c.3959-2.05409.429-3.31.19213-3.71394-.19474-.45124-1.07017-.85943-2.4998-1.19624a32.3095,32.3095,0,0,0-3.55314-.69139c-1.30158-.2603-2.56764-.34773-3.71736-.51668l-1.32918,8.27462c-.4122,2.28167-.71586,4.59279-.9965,6.91957l3.72088.53189c5.28147.8343,8.59443,1.1692,9.83493.91252a1.256,1.256,0,0,0,.50358-.22794,6.206,6.206,0,0,0,.79447-1.51159l1.15708-3.19644.36658-.35168,1.63157.31727Z" transform="translate(-27.07097 -20.66184)"/><path class="cls-1" d="M485.54038,916.66328l-.25109.177c-.1502.00259-.50014-.038-1.05658-.091-2.552-.38013-4.08991-.54962-4.70142-.5937-.92925-.05468-2.41861-.18646-4.44988-.23742a9.08435,9.08435,0,0,0-.86032-2.275l-5.76084-11.87039-2.62795-4.88057a8.15448,8.15448,0,0,0-1.44689-1.779l.34124-.86848c.44-.00758.78635.05714.9804.0538a8.58452,8.58452,0,0,0,4.295-.44261,6.87378,6.87378,0,0,0,2.83678-2.40212,8.74,8.74,0,0,0,1.59169-4.43519c.30637-3.07979-.65651-5.27513-2.87184-6.555a12.70651,12.70651,0,0,0-4.72786-1.17313,13.78976,13.78976,0,0,0-2.67308-.01662c-.36935,1.76288-.70063,4.81178-1.12594,9.02368l-1.316,14.2347a56.39882,56.39882,0,0,0-.41762,8.47818,1.235,1.235,0,0,0,.83639,1.09959,26.83,26.83,0,0,0,3.17351.53328l.2403.31713-.18651,1.81515-.23767.24745c-1.83222-.2351-4.678-.60214-8.48719-.93653-3.92448-.379-6.76758-.59668-8.47706-.63792l-.26233-.23081.17811-1.83108.33995-.29579a29.27742,29.27742,0,0,0,3.22789.02313,1.14022,1.14022,0,0,0,1.01971-.89623,57.16266,57.16266,0,0,0,1.13293-8.39653l1.33329-14.36028a66.77964,66.77964,0,0,0,.46146-8.47895,1.273,1.273,0,0,0-.845-1.13076c-.2739-.05793-1.31239-.228-3.16527-.52619l-.29495-.28486.21762-1.847.27738-.25536c1.7976.29834,4.61759.58712,8.44713.96774,2.252.18129,4.04309.33839,5.445.43954,2.78894.09334,4.88587.22991,6.22786.34013a22.1778,22.1778,0,0,1,6.92677,1.52,6.72011,6.72011,0,0,1,3.67129,4.21926,11.17675,11.17675,0,0,1,.17177,3.25228c-.49371,4.84758-3.56889,8.10115-9.37807,9.67579.78932,1.60961,1.57484,3.188,2.47665,4.86711l3.63817,6.855c2.08516,4.03455,3.5813,6.354,4.35356,6.94471a3.2977,3.2977,0,0,0,1.74276.55069l.20795.32571Z" transform="translate(-27.07097 -20.66184)"/><path class="cls-1" d="M506.19819,917.21756l-.26782.28733c-1.82492-.23523-4.68214-.37478-8.57529-.54307-3.76215-.15448-6.62982-.19908-8.44578-.15255l-.27506-.3085.12332-1.806.28812-.28768c1.90283-.048,2.94909-.0821,3.21-.11792a1.287,1.287,0,0,0,.97477-.95809,62.40034,62.40034,0,0,0,.73129-8.46753l.54721-14.40216a62.47415,62.47415,0,0,0,.00151-8.49432,1.11,1.11,0,0,0-.89832-1.01981,19.30554,19.30554,0,0,0-3.208-.41542l-.32148-.26915.11748-1.86135.29246-.27169c1.78843.18927,4.55981.39214,8.51223.55941,3.85716.15366,6.673.15979,8.44537.12927l.26626.2701-.07542,1.80521-.281.27149c-1.87391.07965-2.98378.09876-3.27253.16638a1.31707,1.31707,0,0,0-.97044.97328,78.43267,78.43267,0,0,0-.69962,8.467l-.55925,14.41041a65.0568,65.0568,0,0,0,.02272,8.48667,1.22191,1.22191,0,0,0,.90657,1.0269,21.28735,21.28735,0,0,0,3.21978.43931l.23824.24648Z" transform="translate(-27.07097 -20.66184)"/><path class="cls-1" d="M550.92007,916.85552l-.23361.24738c-4.10887-.016-6.55114.02606-7.43951-.01326-3.34556.07367-6.51615.2142-9.41554.39745l-.22621-.25472-.04688-1.74046.26361-.34187,2.35987-.198c.99877-.05575,1.55569-.39464,1.54381-1.0691a11.64873,11.64873,0,0,0-.81408-2.55129l-2.36794-5.66091c-2.55488-.03472-5.16379-.00506-7.8.04034-1.39133.03921-3.55476.13911-6.37259.2037l-1.15879,3.3298a21.20494,21.20494,0,0,0-1.27594,4.79037c.01215.69051.4163,1.13815,1.33323,1.185a24.89942,24.89942,0,0,0,2.7795.20354l.31114.32394.02954,1.67811-.2376.25468c-3.4184-.00379-5.61975-.02853-6.59052.00344-.77265.02937-2.6308.124-5.65078.23866l-.286-.23763.0339-1.71856.25549-.34173c1.88954-.11125,3.073-.469,3.48877-1.166.39245-.68142,1.95974-4.47285,4.62049-11.47569l6.84129-17.96175c.52637-1.421,1.30326-3.47365,2.29219-6.29855l3.91214-.09145,15.31416,33.73756c.61062,1.33077,1.12224,2.02072,1.6327,2.18381a8.3674,8.3674,0,0,0,2.61389.253l.2591.27826Zm-17.796-14.31362-6.1787-14.20041-5.37717,14.39939c1.50368.06808,3.4385.03476,5.87658-.00722C529.74755,902.65466,531.682,902.60609,533.1241,902.5419Z" transform="translate(-27.07097 -20.66184)"/><path class="cls-1" d="M592.8122,875.4265l-.24158.25555c-1.833.36889-2.92346.615-3.16782.71314a1.11661,1.11661,0,0,0-.83654,1.1051,66.30329,66.30329,0,0,0,.6875,8.41981l1.39895,11.00339c1,8.13251,1.79047,13.40534,2.34056,15.819l-.3114.30334c-2.12832-.12-3.69856-.14032-4.78653-.21556-5.58054-4.76628-15.16024-13.739-28.776-26.658l2.18453,17.75092a55.89107,55.89107,0,0,0,1.416,8.32935,1.08242,1.08242,0,0,0,1.07756.86734,19.165,19.165,0,0,0,3.24247-.07109l.25013.23022.23832,1.81587-.20131.28618c-2.13906.14606-4.11843.3215-5.9228.56461-2.08041.29444-4.12984.5498-6.28.93941l-.306-.222-.23827-1.86245.26348-.3499a17.47691,17.47691,0,0,0,3.1619-.58775,1.2474,1.2474,0,0,0,.78891-1.13561,57.31538,57.31538,0,0,0-.65654-8.45969L556.29959,889.954a56.64512,56.64512,0,0,0-1.41657-8.35986,1.0841,1.0841,0,0,0-1.01425-.86923,32.48153,32.48153,0,0,0-3.26571.13494l-.32133-.26112-.2231-1.83139.30381-.31927c1.70444-.06067,3.38314-.19961,4.9188-.3907,2.45259-.33218,4.50952-.619,6.11374-.92852q11.49786,11.77844,26.68611,25.07879l-1.99255-15.88847a66.49548,66.49548,0,0,0-1.38422-8.32107,1.291,1.291,0,0,0-1.04687-.92328c-.32612-.02571-1.364.02348-3.2423.1265l-.32932-.253-.22986-1.80075.25577-.32567c2.07656-.09841,3.96-.32681,5.84393-.5239,2.32641-.29948,4.47839-.63451,6.34431-.93329l.25841.23891Z" transform="translate(-27.07097 -20.66184)"/><path class="cls-1" d="M640.63417,901.36538l-.16959.28483c-3.98348.79064-6.41629,1.36583-7.25385,1.53687-3.28544.80994-6.30073,1.60639-9.11823,2.385l-.28265-.27785-.4011-1.60907.19148-.37918,2.29582-.69893c.93874-.28281,1.31228-.70448,1.20509-1.346a8.79641,8.79641,0,0,0-1.34925-2.322l-3.55631-5.11517c-2.43255.54387-5.00869,1.09743-7.55109,1.7219-1.39.3452-3.51459.85244-6.254,1.59033l-.37443,3.50424a20.30755,20.30755,0,0,0-.23862,4.8986c.186.68672.66678.96919,1.57033.89821.45906-.0312,1.42436-.18918,2.76853-.41632l.3044.17547.44254,1.70232-.20043.33275c-3.33481.68469-5.46861,1.12944-6.38435,1.38054q-1.14959.23182-5.43116,1.45809l-.35216-.2132-.38707-1.688.24-.34869c1.76679-.5324,2.86587-1.21073,3.11489-1.9202.24982-.6637.90767-4.76876,2.03067-12.16117l2.82125-19.01375c.19692-1.45471.46691-3.69457.86614-6.66674l3.83053-.89723,22.26408,29.7908c.84518,1.138,1.53656,1.65939,2.013,1.7299a7.77719,7.77719,0,0,0,2.64407-.28889l.27341.21456ZM620.1497,891.09782l-9.11262-12.56525-2.15842,15.2379c1.49338-.33172,3.38863-.76433,5.77491-1.3074C616.92835,891.95324,618.7926,891.51313,620.1497,891.09782Z" transform="translate(-27.07097 -20.66184)"/><path class="cls-1" d="M689.88464,877.84958l-.12148,3.014a26.67652,26.67652,0,0,1-10.91858,7.7964c-8.89212,3.55694-16.28742,2.86826-22.13491-2.20747a22.39207,22.39207,0,0,1-6.219-8.59924c-2.2463-5.52967-2.17084-10.70015.17146-15.49362q3.66564-7.33379,13.54563-11.31614a36.3098,36.3098,0,0,1,13.1825-2.6421l.43228.24314a47.54615,47.54615,0,0,0,2.31638,8.58773l-.16009.36338-1.51236.59147-.33647-.19821a38.80931,38.80931,0,0,0-2.023-4.1071c-3.12021-1.51486-6.67283-1.485-10.67333.1372-4.17425,1.67178-6.928,4.26845-8.175,7.75639-1.34069,3.60761-1.08788,7.58777.783,12.04205,2.4527,5.99758,6.43749,9.75605,11.96958,11.35548,2.9483.79577,6.2898.48764,10.0536-1.05981a22.19755,22.19755,0,0,0,8.90987-6.60846Z" transform="translate(-27.07097 -20.66184)"/><path class="cls-1" d="M713.04264,829.62146l-.09649.37834c-1.90168.98932-2.72329,2.06284-2.37012,3.20931a19.60751,19.60751,0,0,0,1.68489,3.81494c.73053,1.40662,1.821,3.419,3.20048,6.07787l4.11,7.31756c2.63847,4.78642,3.5313,8.67684,2.74454,11.73359-1.00746,4.03318-3.78988,7.26564-8.48832,9.79379-4.24127,2.33957-7.88786,3.3517-11.03038,3.24116a9.32238,9.32238,0,0,1-6.70534-2.91971c-1.17821-1.14109-3.34263-4.69558-6.602-10.52185l-3.40811-6.20039a49.99232,49.99232,0,0,0-4.41119-7.26579,1.16668,1.16668,0,0,0-1.30813-.44813c-.28441.0836-1.24422.50734-2.936,1.28983l-.40661-.12632-.86057-1.59312.13526-.39428c1.59777-.71823,4.12127-2.001,7.52225-3.86344a78.67458,78.67458,0,0,0,7.326-4.1733l.384.1741.93125,1.55255-.143.41047c-1.53722.975-2.47931,1.53257-2.69751,1.7323a1.17678,1.17678,0,0,0-.31752,1.33952,52.69861,52.69861,0,0,0,3.77423,7.62132l2.67972,4.911c3.33492,6.0603,5.68189,9.60442,6.96962,10.68821,2.55815,2.07309,6.06231,1.96617,10.32834-.35053,2.86738-1.54005,4.66632-3.42955,5.4914-5.64764a6.51562,6.51562,0,0,0,.45787-2.82379,12.02938,12.02938,0,0,0-1.04505-3.49586c-.55543-1.37911-1.26868-2.73141-1.975-4.09989l-2.76809-4.948c-2.302-4.17217-3.91573-7.07835-4.73546-8.57018a14.55637,14.55637,0,0,0-1.85492-2.67392,1.42967,1.42967,0,0,0-1.26557-.24486,14.15245,14.15245,0,0,0-3.19044,1.22354l-.35188-.15056-.86744-1.52232.07224-.41729a43.16339,43.16339,0,0,0,4.40992-2.21717c1.14824-.56111,3.27665-1.77359,6.38549-3.57642l.367.127Z" transform="translate(-27.07097 -20.66184)"/><path class="cls-1" d="M776.21536,829.23969l-.08808.39426c-1.52174.93539-3.85675,2.59157-6.9823,4.77859-3.13146,2.32126-5.4176,4.03121-6.73007,5.13568l-.35861-.07173-1.09659-1.48706.07239-.36267a28.98256,28.98256,0,0,0,2.39068-2.09567,1.13063,1.13063,0,0,0,.19783-1.35272,68.29734,68.29734,0,0,0-4.75569-7.04782l-11.02527-14.91612,2.4536,13.65977c.14046.78228.69622,3.51793,1.68379,8.26933l2.42846,11.77035-1.47229,1.06867c-2.12453-1.28865-4.8555-2.79495-8.25127-4.65042l-7.97419-4.23112-14.73879-7.8333,11.34159,15.31145a57.58235,57.58235,0,0,0,5.35949,6.64548,1.33966,1.33966,0,0,0,1.353.27468c.29921-.11519,1.16966-.67874,2.76226-1.69486l.40543.05567,1.08035,1.48733-.06455.39306c-1.74845,1.11277-3.39406,2.2551-4.89788,3.33154-1.69131,1.22182-3.366,2.51323-5.03236,3.81254l-.38986-.04791-1.07333-1.50352.02532-.361a21.619,21.619,0,0,0,2.45366-2.11282,1.02367,1.02367,0,0,0,.13443-1.35966,53.89183,53.89183,0,0,0-4.7241-7.04837l-8.63583-11.63938a62.117,62.117,0,0,0-5.30366-6.61511,1.28433,1.28433,0,0,0-1.385-.2902c-.25949.11451-1.15408.68731-2.75447,1.67947l-.429-.05526-1.09618-1.46377.09614-.40164c1.6315-1.01679,3.60641-2.368,5.96276-4.10324,1.80929-1.30176,3.374-2.5206,4.64855-3.56257,1.31476.77812,3.18873,1.81245,5.60086,3.24553l3.62747,1.96072,17.98868,9.52584-1.718-9.288L744.35753,811.309c-.39636-1.79709-.84166-3.656-1.38361-5.60717a40.53994,40.53994,0,0,0,3.47968-2.37384c2.93095-2.0351,5.0753-3.68,6.57664-4.89771l.37226.01688,1.13017,1.54913-.08892.34689a20.98515,20.98515,0,0,0-2.42226,2.097,1.148,1.148,0,0,0-.14987,1.35913,59.102,59.102,0,0,0,4.74779,7.056l8.58814,11.64823a67.47374,67.47374,0,0,0,5.36718,6.62929,1.25767,1.25767,0,0,0,1.32052.22865,19.069,19.069,0,0,0,2.7783-1.66381l.44612.10235Z" transform="translate(-27.07097 -20.66184)"/><path class="cls-1" d="M794.02723,795.78711c3.1508,3.30218,3.98582,7.46106,2.41969,12.24116a16.63061,16.63061,0,0,1-4.95836,7.089c-.82727.75958-1.49849,1.38315-2.04555,1.86323l-4.93679,4.30484c-1.73343,1.551-3.02736,2.82867-3.89908,3.785l-.39649-.00924-.53335-.58677-.08565-.34388a11.01525,11.01525,0,0,0,.48467-2.64354,13.42219,13.42219,0,0,0-2.27033-2.83142l-4.141-4.55655-9.51368-10.15848a61.38156,61.38156,0,0,0-6.08514-5.93423,1.14152,1.14152,0,0,0-1.38975-.10136c-.27465.13-1.072.78708-2.55116,1.92574l-.36454.00628-1.30872-1.35731.02573-.33777c1.30667-1.01923,3.39885-2.90575,6.28573-5.59868,1.87369-1.70285,3.527-3.28464,4.96168-4.69,1.11368-1.14039,2.15163-2.10761,2.96383-2.84284,3.76171-3.46859,7.03618-4.859,9.75031-4.309a7.216,7.216,0,0,1,3.83935,2.27833,7.96574,7.96574,0,0,1,2.18249,6.84155,9.78868,9.78868,0,0,1-.90844,3.34155c-.59872,1.13956-1.32369,2.31262-2.11137,3.51808C785.18554,791.82955,790.09747,791.50964,794.02723,795.78711ZM775.09652,789.54c-2.78072-2.94793-5.71605-3.00743-8.78236-.13069a18.23815,18.23815,0,0,0-2.47658,2.5678c1.24622,1.40576,2.43533,2.75067,3.55089,3.93139l5.19637,5.503a16.78945,16.78945,0,0,0,1.89779-1.67194c2.42047-2.199,3.316-4.47291,2.67438-6.68985A8.91313,8.91313,0,0,0,775.09652,789.54ZM788.443,802.06363c-3.77515-4.02954-7.75682-4.063-12.03495-.16946-.49861.51057-1.13805,1.09423-1.77775,1.70923l8.72122,9.29346c.96165,1.01873,1.9138,1.9589,2.82644,2.86924a21.902,21.902,0,0,0,2.47156-1.97257,7.43519,7.43519,0,0,0,2.71361-5.80382A9.21072,9.21072,0,0,0,788.443,802.06363Z" transform="translate(-27.07097 -20.66184)"/><path class="cls-1" d="M819.78658,772.79386a56.90163,56.90163,0,0,0,6.34908,6.53367l.00635.36051-13.67014,14.57351c-2.25678,2.45479-3.81261,4.17546-4.658,5.28794l-.38809.00668-.58-.51528-.148-.2874a14.06289,14.06289,0,0,0,.31636-2.74344,15.95273,15.95273,0,0,0-2.50525-2.66273l-4.51539-4.18867-10.36372-9.31257a55.46049,55.46049,0,0,0-6.54343-5.44042,1.02274,1.02274,0,0,0-1.37183.03968,13.21483,13.21483,0,0,0-2.389,2.143l-.41218.02236-1.37851-1.26213-.01394-.37645c1.36518-1.29411,3.31954-3.35094,5.91829-6.17224,2.398-2.55118,6.77068-7.39568,13.21143-14.51822l.34773-.0847,2.06333,2.333c.67088.69443,1.18866,1.27343,1.64272,1.831l1.82431,1.81186-.07252.40123-1.04168,1.17048-.404.023c-1.806-1.64753-2.97027-2.45876-3.41555-2.52177-.33386-.04967-1.17971.57691-2.47538,1.7598-1.31108,1.184-2.37808,2.30025-3.32077,3.28109-1.07414,1.17184-2.123,2.39786-3.12444,3.63833a76.24281,76.24281,0,0,0,5.73065,5.63513l4.23852,3.7782c1.053-.99077,1.87921-1.80495,2.46328-2.44308l2.43438-2.7004c1.09687-1.21881,1.66937-2.05272,1.632-2.37335-.05535-.42231-.82619-1.39774-2.38357-2.94754l-.03787-.35193,1.18277-1.27572.40433-.007c1.469,1.46538,2.83937,2.72766,4.08985,3.91409,1.38581,1.21542,2.89236,2.55406,4.59069,3.94482l.00648.36854-1.24539,1.36273-.39552.04616c-1.56368-1.4011-2.57585-2.1523-3.06917-2.22172-.50834-.03863-1.31793.38332-2.4023,1.38989a33.95,33.95,0,0,0-2.516,2.58454c-.91088.98832-1.71888,1.91222-2.42457,2.84239l6.19829,5.62627c1.80462,1.61622,3.5594,3.07669,5.28264,4.54492l2.5608-2.766c3.58761-3.89689,5.63686-6.42681,6.15491-7.62763a.85946.85946,0,0,0,.102-.527,7.18891,7.18891,0,0,0-.88349-1.51482l-2.07875-2.748-.04669-.39194,1.11241-1.25844Z" transform="translate(-27.07097 -20.66184)"/><path class="cls-1" d="M852.23923,746.54739l.06995.37548a5.89164,5.89164,0,0,1-.69944.82c-1.61667,1.86308-2.57862,3.0876-2.99875,3.58075-.54211.71532-1.42574,1.86782-2.62486,3.59841a7.83845,7.83845,0,0,0-2.33279-.52446L830.38,752.80617l-5.51082-.391a5.94248,5.94248,0,0,0-2.36006.22858l-.52214-.82229c.23223-.32527.443-.5329.57458-.71588a8.6505,8.6505,0,0,0,1.93073-3.86033,7.228,7.228,0,0,0-.548-3.63052,8.51465,8.51465,0,0,0-2.89683-3.73062c-2.46832-1.90277-4.78236-2.23881-7.15707-1.08473a11.25443,11.25443,0,0,0-3.51128,3.30043,15.103,15.103,0,0,0-1.48492,2.15075c1.33963,1.26361,3.68908,3.19975,7.11352,5.80729l11.38518,8.7922a70.88083,70.88083,0,0,0,6.9867,4.92359,1.32188,1.32188,0,0,0,1.45746-.11184c.15554-.20668.85582-.97934,2.1227-2.41312l.40433-.007,1.479,1.11181.05454.37575c-1.23714,1.37062-2.97467,3.56507-5.36525,6.5394-2.39661,3.0925-4.11775,5.34209-5.07666,6.73924l-.34749.05257-1.471-1.12-.07862-.40585a28.14889,28.14889,0,0,0,1.75278-2.66617,1.03289,1.03289,0,0,0-.22157-1.32945,66.74668,66.74668,0,0,0-6.52924-5.51134L811.00842,756.207a51.85649,51.85649,0,0,0-6.97073-4.93912,1.35856,1.35856,0,0,0-1.41024.11825c-.18695.1759-.92687.95727-2.13938,2.34273l-.41973.05462-1.49485-1.13564-.0223-.34418c1.24525-1.37076,2.96762-3.54969,5.342-6.52374,1.412-1.77361,2.49738-3.22755,3.33477-4.28529,1.59337-2.31,2.80118-3.96206,3.67063-5.04363a20.979,20.979,0,0,1,4.98068-4.94894,6.62,6.62,0,0,1,5.59411-.78624,9.97135,9.97135,0,0,1,2.80414,1.607c3.907,2.98315,5.03868,7.34092,3.243,13.01088,1.74894.2526,3.61626.44774,5.48233.57223l7.8.65039c4.57413.32924,7.34323.39883,8.218.08579a2.94021,2.94021,0,0,0,1.43952-1.13075l.3958-.03011Z" transform="translate(-27.07097 -20.66184)"/><path class="cls-1" d="M862.89429,714.33124a60.01409,60.01409,0,0,0,7.24277,5.491l.06969.36022L858.941,736.62774c-1.8629,2.7773-3.06519,4.74327-3.77376,5.96344l-.36406.03759-.67364-.43576-.17911-.25554a7.21715,7.21715,0,0,0-.14247-2.69538,14.45693,14.45693,0,0,0-2.87969-2.29566l-5.105-3.45-11.63594-7.67389a54.9819,54.9819,0,0,0-7.37309-4.35953,1.10311,1.10311,0,0,0-1.36041.22742,25.7914,25.7914,0,0,0-2.01891,2.44989l-.34637.116-1.58926-1.0545-.061-.32905c1.13831-1.5408,2.78152-3.74166,4.75729-6.843,2.1187-3.05559,3.6303-5.48951,4.62485-7.12261l.40275-.1009,1.54858,1.00862.06156.35956c-.89221,1.58394-1.46162,2.55112-1.521,2.77141a1.18492,1.18492,0,0,0,.32557,1.38227,54.66508,54.66508,0,0,0,6.9085,5.00283l13.74522,9.019c2.02155,1.29845,3.99439,2.55115,5.871,3.734l2.14994-3.1268c2.95961-4.42019,4.5838-7.24,4.93547-8.43872a1.104,1.104,0,0,0-.0098-.55642,4.98651,4.98651,0,0,0-1.08693-1.3539L861.6664,716.227l-.11746-.398.91082-1.41159Z" transform="translate(-27.07097 -20.66184)"/><path class="cls-1" d="M892.772,681.04759l.13258.33424c-2.11287,3.433-3.39252,5.52557-3.7679,6.25408-1.66921,2.93861-3.2397,5.67152-4.50323,8.21844l-.4112.07775-1.50557-.82141-.1264-.44439,1.065-2.105c.49954-.91859.34561-1.54321-.21431-1.83958a10.74421,10.74421,0,0,0-2.61927-.55888l-6.16406-.96047c-1.294,2.15549-2.5875,4.38246-3.84732,6.67872-.74018,1.22793-1.80232,3.08146-3.14761,5.50529l2.35574,2.70466c1.71817,2.05624,2.90479,3.25983,3.505,3.53141.60858.34291,1.12881.18457,1.68729-.523A18.20386,18.20386,0,0,0,876.75,704.853l.40185-.14747,1.56916.83558.1019.39019c-1.77356,2.86973-2.94613,4.72516-3.38344,5.58-.36946.6497-1.26078,2.28824-2.61859,4.87694l-.36234.13153-1.53819-.87547-.118-.38268c.80308-1.66836,1.12281-2.88182.72941-3.59629-.31971-.6298-2.87682-3.92775-7.63473-9.75954L851.76026,686.9141c-.94086-1.1757-2.31955-2.90929-4.27852-5.17342l1.93076-3.39771,37.18389,4.22212a3.97959,3.97959,0,0,0,2.70775-.27392,8.152,8.152,0,0,0,1.54968-2.06593l.39525-.06142Zm-21.53936,7.77447-15.49213-1.96043,9.791,11.93352c.77915-1.2286,1.77962-2.98709,2.95726-5.01529C869.64312,691.76733,870.56568,690.10415,871.23262,688.82206Z" transform="translate(-27.07097 -20.66184)"/><path class="cls-1" d="M879.55154,623.87693l.11056.42136a23.68546,23.68546,0,0,0-1.09664,3.03076,1.13834,1.13834,0,0,0,.48134,1.231,68.163,68.163,0,0,0,7.57173,3.92481l10.14034,4.74319c7.51607,3.439,12.39205,5.59833,14.81874,6.47457l.047.4072c-1.2,1.68322-2.11207,3.01692-2.68363,3.90462-7.10128,2.08361-19.85953,5.39307-38.16594,9.83415l16.29764,7.62575a56.77456,56.77456,0,0,0,7.90966,3.28368,1.17323,1.17323,0,0,0,1.30093-.42237,23.39709,23.39709,0,0,0,1.66548-2.73535l.35311-.194,1.6804.83366.14044.31966c-1.0225,1.84481-1.92716,3.60165-2.67544,5.24576-.90273,1.86685-1.75755,3.77945-2.57091,5.78611l-.32256.13085-1.69636-.81813-.149-.342a18.85519,18.85519,0,0,0,1.11315-3.01578,1.14119,1.14119,0,0,0-.52169-1.26163,61.92452,61.92452,0,0,0-7.55644-3.9331l-13.25111-6.18753a54.86951,54.86951,0,0,0-7.88433-3.22871,1.21261,1.21261,0,0,0-1.3023.39108,30.54892,30.54892,0,0,0-1.63948,2.82807l-.31513.09136-1.75967-.81623-.08477-.34391c.83-1.47284,1.597-2.97672,2.286-4.39252,1.05518-2.19877,1.84653-4.11831,2.48551-5.65051q16.194-3.24372,35.63732-8.88865l-14.61791-6.784a59.61618,59.61618,0,0,0-7.86974-3.27634,1.17867,1.17867,0,0,0-1.34127.39174,16.09494,16.09494,0,0,0-1.64044,2.77347l-.40267.10091-1.64762-.77159-.11758-.35859c.961-1.74175,1.88937-3.49177,2.63743-5.1905,1.01712-2.10414,1.84854-4.00831,2.57836-5.7782l.33082-.123Z" transform="translate(-27.07097 -20.66184)"/><path class="cls-1" d="M909.20351,589.07436a20.87643,20.87643,0,0,1,12.31455,11.11421,19.83126,19.83126,0,0,1,1.781,8.34637,26.602,26.602,0,0,1-2.21124,10.43827l-3.65751,8.92592c-.9486,2.44029-1.7067,4.45323-2.20086,6.093l-.31427.18613-.71878-.27837-.27369-.23062a10.78163,10.78163,0,0,0-.73541-2.60646c-.25208-.341-1.32384-.83258-3.3367-1.63723l-5.686-2.22325-13.102-4.95884a69.17569,69.17569,0,0,0-8.12163-2.68409,1.287,1.287,0,0,0-1.3315.48556c-.16249.22286-.61228,1.24982-1.38437,2.92567l-.35448.11614-1.78852-.65912-.06919-.32811c.81034-1.76325,1.49379-3.4456,2.11568-5.07228,1.51642-3.96324,2.81718-7.5782,3.98216-10.78281.57511-1.56243,1.16505-3.20462,1.78778-4.78393,1.72971-4.43756,3.54627-7.59074,5.40667-9.58331a14.11578,14.11578,0,0,1,7.59638-4.13137A19.73059,19.73059,0,0,1,909.20351,589.07436Zm-1.788,8.32188c-4.759-1.79265-8.85633-2.06746-12.29876-.76087a10.76319,10.76319,0,0,0-4.54854,3.38014,27.66021,27.66021,0,0,0-3.51216,6.85285,36.72648,36.72648,0,0,0-1.45629,4.65292c1.87189.91631,6.48781,2.74275,13.88148,5.5494l11.33648,4.18126a49.60743,49.60743,0,0,0,5.04186,1.70906,34.05565,34.05565,0,0,0,2.14256-4.468,18.37731,18.37731,0,0,0,1.61-8.56136,12.14816,12.14816,0,0,0-3.58326-7.10737A23.33335,23.33335,0,0,0,907.41548,597.39624Z" transform="translate(-27.07097 -20.66184)"/><path class="cls-4" d="M211.5,381.04351c-3.54063,11.01054-9.84614,16.986-18.633,17.91191-5.25834.5798-14.15527-1.19252-26.63218-5.27038q-18.82738-6.19871-24.69524-11.52771c-6.52473-5.97626-7.95576-14.44517-4.36053-25.51916,4.77972-14.51584,15.04189-18.923,30.78472-13.0808l-4.85842,14.77523c-4.73234-1.58441-8.289-2.21159-10.6299-1.945a5.13311,5.13311,0,0,0-4.49705,3.84257c-1.28241,3.92127-.10194,7.30931,3.63056,9.99148,3.12947,2.19553,9.66144,4.94034,19.60152,8.15573,9.97543,3.30934,16.85351,4.96362,20.7033,5.05035,4.61189.04657,7.54461-1.961,8.83831-5.92888,1.01586-2.99536-.08592-5.56832-3.21137-7.68514a58.82511,58.82511,0,0,0-9.17474-3.99194l4.83433-14.86115c9.32009,3.06683,15.38634,7.066,18.12307,12.11634C213.89948,367.6961,213.94686,373.6563,211.5,381.04351Z" transform="translate(-27.07097 -20.66184)"/><path class="cls-4" d="M231.52551,334.94713c-5.51691,10.242-12.705,14.99445-21.54649,14.36647-5.25834-.32925-13.69673-3.6386-25.28387-9.81q-17.49151-9.3872-22.319-15.63769c-5.3523-7.00335-5.33623-15.64492.11-25.84038,5.50888-10.226,12.61021-15.06512,21.44852-14.4532,5.231.33728,13.728,3.63137,25.381,9.85818q17.38071,9.32817,22.22106,15.58228C236.94848,316.03141,236.91716,324.67377,231.52551,334.94713Zm-10.01878-5.39566c1.98834-3.686,1.35313-7.21456-1.851-10.47733-2.70942-2.71349-8.64558-6.57131-17.92316-11.46507-9.2302-4.94836-15.72758-7.81122-19.453-8.501-4.53238-.87853-7.79917.56454-9.77867,4.29709-1.957,3.678-1.37241,7.168,1.85423,10.49339,2.69421,2.69743,8.66565,6.48539,17.87658,11.43375,9.2575,4.98771,15.75092,7.78713,19.47624,8.501C216.2524,334.74315,219.54649,333.26876,221.50673,329.55147Z" transform="translate(-27.07097 -20.66184)"/><path class="cls-4" d="M269.72876,275.91048,245.994,307.4838,185.503,261.98247l9.5482-12.66482,50.39829,37.99527L259.706,268.36668Z" transform="translate(-27.07097 -20.66184)"/><path class="cls-4" d="M298.9331,246.83946,269.28147,276.781l-53.79356-53.19369,29.00838-29.385,8.27779,8.17981-17.91186,18.1191,13.27669,13.1081L264.63912,216.906l8.297,8.187-16.53952,16.72743,15.767,15.551,18.48845-18.70372Z" transform="translate(-27.07097 -20.66184)"/><path class="cls-4" d="M310.5909,173.00109l-12.7122,9.24546c-2.38826-3.41535-4.63919-5.59883-6.70543-6.54-2.70545-1.30575-5.59963-.86247-8.6777,1.39569-3.584,2.58018-4.2465,6.57935-1.97629,11.93967q1.98873,4.864,10.47331,16.50819c6.83471,9.46549,11.91638,15.18237,15.10848,17.06471,3.20736,1.96826,6.68134,1.55309,10.40265-1.14515a23.4138,23.4138,0,0,0,5.513-5.85018l-9.86943-13.53933-6.944,5.03429-6.82668-9.3868,19.73081-14.36727,22.58162,31.0433a115.94684,115.94684,0,0,1-15.8376,14.62586c-10.214,7.41933-18.7383,9.8654-25.42847,7.24668q-8.27536-3.23547-21.92232-21.97452-10.95795-15.08-12.57568-23.55411-2.31036-13.20447,11.64254-23.35817c6.41473-4.63035,12.63752-6.52072,18.65634-5.62292C301.266,162.65707,306.43032,166.3824,310.5909,173.00109Z" transform="translate(-27.07097 -20.66184)"/><path class="cls-4" d="M360.94582,205.51075,347.05716,213.11l-36.4116-66.34917,13.84925-7.63856Z" transform="translate(-27.07097 -20.66184)"/><path class="cls-4" d="M389.5302,194.05693c-10.82585,4.212-19.40156,3.26678-25.71831-2.964-3.77993-3.686-8.11638-11.64977-12.91216-23.8681q-7.28763-18.45638-6.90538-26.38083c.42-8.83429,6.08226-15.355,16.86073-19.58224q16.187-6.40469,25.66772,2.81547c3.81928,3.682,8.07381,11.70036,12.94026,23.99739,4.84236,12.23358,7.11659,20.99721,6.88531,26.23949Q405.6955,187.64261,389.5302,194.05693Zm-4.15575-10.55121c3.91329-1.537,5.70483-4.66649,5.36755-9.24224-.25858-3.792-2.36818-10.59056-6.17943-20.31945-3.83856-9.75538-6.9367-16.13558-9.36351-19.08757-2.85884-3.56471-6.28944-4.60385-10.22677-3.0861-3.86184,1.533-5.65418,4.62714-5.33623,9.24947q.39992,5.659,6.19147,20.32747c3.84257,9.73612,6.93991,16.11149,9.32014,19.05626C378.09645,183.99959,381.45719,185.00741,385.37445,183.50572Z" transform="translate(-27.07097 -20.66184)"/><path class="cls-4" d="M442.50867,176.86293l-15.47628,2.18429,10.07741-77.909,20.676-2.98009,31.03527,72.04677-16.51542,2.37621-6.50948-16.02155L444.375,159.61032Zm18.3038-31.35729-12.22234-31.30189-.2.03935-2.51674,33.40024Z" transform="translate(-27.07097 -20.66184)"/><path class="cls-4" d="M503.9135,170.75819l-15.4176-1.18851,5.8542-75.47738,25.385,1.945,7.85378,52.25253.21608-.01125,16.51938-50.35171,24.578,1.90562-5.81887,75.46614-15.371-1.16843,4.45442-58.248-19.135,57.13021-15.21449-1.19172-9.39883-59.2912Z" transform="translate(-27.07097 -20.66184)"/><path class="cls-4" d="M608.24668,189.52856l-40.52083-11.57911,20.79731-72.788,39.729,11.33578-3.20737,11.22255-24.50732-7.00335-5.113,17.9352,22.57044,6.4621L614.818,156.297l-22.60886-6.47014-6.06948,21.2566,25.28307,7.278Z" transform="translate(-27.07097 -20.66184)"/><path class="cls-4" d="M637.81158,168.47593l-13.198,28.45911-14.35121-6.66929,31.87044-68.68282,26.52216,12.32433c5.0118,2.28627,8.23442,5.67432,9.63091,10.09668,1.427,4.42318.81509,9.56025-1.88233,15.33174q-6.82257,14.70414-20.56277,10.9206l-.08593.15258q11.79874,7.33461,6.21075,19.29958c-5.15233,11.19123-7.76383,18.17852-7.76383,20.93538L640.12515,204.099a20.07291,20.07291,0,0,1,1.639-7.21455c.1333-.51395,1.18449-2.79219,3.01945-6.81143,2.57215-5.50086,3.89717-9.17077,4.01522-11.03785.06264-3.63458-2.38417-6.548-7.278-8.83028Zm13.79471-29.66367-8.917,19.143,6.41559,2.92951a6.97055,6.97055,0,0,0,7.41846-.72916,15.0147,15.0147,0,0,0,4.55647-5.98429c2.8468-6.00276,1.74107-10.15129-3.14472-12.38617Z" transform="translate(-27.07097 -20.66184)"/><path class="cls-4" d="M669.48688,221.05048l-13.55138-8.29706,39.66566-64.503,13.52,8.34042Z" transform="translate(-27.07097 -20.66184)"/><path class="cls-4" d="M693.58552,240.18141c-9.15157-7.18323-12.58619-15.04183-10.40673-23.67938,1.2391-5.13306,6.00758-12.84229,14.10074-23.17427,8.187-10.3906,14.6571-16.82138,19.3236-19.28351q11.73971-6.065,25.44768,4.709,17.99745,14.25726,1.65508,33.4428L731.50282,202.574c3.18407-3.9566,4.95639-7.03066,5.48961-9.3089a5.10743,5.10743,0,0,0-1.99155-5.6189c-3.278-2.5569-6.84676-2.58821-10.6813,0q-4.69419,3.26438-14.43794,15.59031c-6.46933,8.25771-10.438,14.17856-11.771,17.67662-1.59967,4.31316-.80786,7.78713,2.4782,10.35928q3.71729,2.94156,8.34444-.37663a57.3453,57.3453,0,0,0,6.87727-7.22981l12.289,9.7321c-6.02284,7.66185-11.9204,11.959-17.59793,12.77484C705.34123,247.00408,699.6637,244.98121,693.58552,240.18141Z" transform="translate(-27.07097 -20.66184)"/><path class="cls-4" d="M720.54768,262.2804l-10.46207-11.64495,70.43105-34.88266,13.928,15.51964L751.799,297.12371l-11.14385-12.42952,9.6534-14.30464L735.926,254.31339Zm36.22294-2.19552,19.23694-27.49465-.14856-.17266-29.17382,16.45279Z" transform="translate(-27.07097 -20.66184)"/><path class="cls-4" d="M759.07617,309.89855l-7.59112-12.70417,64.96465-38.86576,11.05793,18.47565-34.61525,44.27748L837.87494,294.183l7.59921,12.6576-64.95749,38.86576L769.7414,327.73177l36.859-46.261Z" transform="translate(-27.07097 -20.66184)"/><path class="cls-4" d="M790.07691,375.13872q-5.953-16.34,3.63056-25.65247,5.741-5.46993,24.30335-12.187,18.6214-6.71666,26.53822-6.08547c8.75962.63521,15.12776,6.48539,19.11889,17.38672q5.83492,16.36286-3.59924,25.589c-3.80322,3.686-11.967,7.74055-24.33467,12.25767-12.39821,4.44646-21.21323,6.50065-26.53019,6.07745Q795.95841,391.54774,790.07691,375.13872Zm10.62589-3.85863c1.435,3.97587,4.42317,5.85821,9.05031,5.70162,3.79519-.22,10.63392-2.07106,20.49933-5.6157,9.8654-3.60727,16.29619-6.49342,19.37024-8.81422,3.61531-2.77612,4.76848-6.13285,3.38805-10.11676-1.41176-3.94455-4.4312-5.8028-9.08164-5.6462q-5.75181.259-20.476,5.63095c-9.90476,3.52857-16.33554,6.47736-19.39354,8.74355C800.40487,364.01012,799.291,367.35079,800.7028,371.28009Z" transform="translate(-27.07097 -20.66184)"/><path class="cls-1" d="M337.05444,268.36668s86.36271,54.92666,161.33009,52.22923c74.9562-2.67414,164.71814-53.56309,164.71814-53.56309l40.81155,50.30032S667.134,346.083,681.13986,388.94868c14.05329,42.881,65.60073,146.689,25.37783,210.26605-40.137,63.60837-172.71728,72.93253-182.79067,81.65279-9.98747,8.68975-24.77393,28.78113-24.77393,28.78113s.02007-22.14637-71.59546-38.89708c-71.67416-16.7194-149.971-52.25333-152.6532-119.18631C272.07767,484.6395,339.038,406.93849,320.2443,359.35969c-18.68364-47.51616-23.36941-40.81877-23.36941-40.81877Z" transform="translate(-27.07097 -20.66184)"/><path class="cls-4" d="M611.28948,340.546a8.08626,8.08626,0,0,0-8.10921-8.13967,8.191,8.191,0,0,0-8.179,8.13967,6.21619,6.21619,0,0,0,.196,1.17646,6.34092,6.34092,0,0,0-.84722,1.27041L460.59726,517.71049l8.52432,5.63818L603.54887,348.67116v-.03935A8.129,8.129,0,0,0,611.28948,340.546Z" transform="translate(-27.07097 -20.66184)"/><path class="cls-1" d="M631.20092,418.40436s7.27719,24.91447,24.92256,29.6436c17.61392,4.76768,40.85,9.50484,40.85,9.50484l-61.49075,79.41792s-30.50606-2.54083-51.13147-21.92714c-20.64869-19.33892-10.28861-38.2153-10.28861-38.2153Z" transform="translate(-27.07097 -20.66184)"/><path class="cls-4" d="M635.35748,538.29574c-.11,0-30.82006-2.54083-51.91605-22.24032h0c-10.548-9.92805-13.2928-19.91953-13.308-27.38463h0a27.94559,27.94559,0,0,1,2.73671-12.51626h0l.06264-.12608,57.3109-58.59657,1.60047-1.60047.62717,2.19633s.03935.07789.11.23529h0c.06264.17265.10928.48584.2112.7918h0c.25945.65127.5887,1.65508,1.06644,2.83073h0a58.27638,58.27638,0,0,0,4.36857,8.87766h0c3.89718,6.71346,9.97542,13.78668,18.24123,15.99826h0c13.17468,3.54464,29.53351,7.10534,36.84282,8.62631h0c2.47017.518,3.88915.84721,3.88915.84721h0l2.07032.39189-63.2005,81.7323-.7131-.06345ZM575.0978,477.64418a2.1745,2.1745,0,0,1-.26655.54125h0a15.2687,15.2687,0,0,0-.816,2.25093h0a29.16224,29.16224,0,0,0-1.22377,8.19508h0c0,6.862,2.42352,15.97416,12.46961,25.44768h0c17.66063,16.61018,43.05364,20.73462,48.99778,21.43327h0c.22807,0,.47059.06264.60389.06264h0l59.75062-77.20714c-6.1016-1.25436-24.31948-5.113-38.87467-9.04951h0c-9.32408-2.50952-15.72361-10.2581-19.84082-17.206h0a71.46766,71.46766,0,0,1-5.26155-11.22255h0L575.0978,477.55022v.094Z" transform="translate(-27.07097 -20.66184)"/><path class="cls-1" d="M605.86244,462.22652l-4.71307,17.206s-3.73255,3.08931-14.46123,3.04274c-10.75919,0-12.62547-5.647-12.62547-5.647l23.43205-23.99658Z" transform="translate(-27.07097 -20.66184)"/><path class="cls-4" d="M575.48975,480.703a9.10546,9.10546,0,0,1-2.69823-3.44266h0l-.26668-.7926,24.98594-25.59706,9.33218,10.49339-.98052.86247.98052-.86247.47059.50913-5.011,18.28051-.306.26661c-.29793.2353-4.32922,3.38805-15.30845,3.40331h-.06263c-5.55226.02409-9.04952-1.48965-11.13576-3.12063Zm1.6623-2.09435c1.56828,1.24713,4.36053,2.53361,9.52083,2.56493h0c8.40628-.02409,12.26491-1.961,13.30806-2.58821h0l4.39186-16.01352-6.94072-7.82728-21.76974,22.33509a6.83844,6.83844,0,0,0,1.48971,1.529Z" transform="translate(-27.07097 -20.66184)"/><path class="cls-1" d="M590.94669,355.24248,531.81609,434.12s41.9093,1.36437,57.27155,14.79048c13.77945,12.01435,12.485,29.59622,12.485,29.59622l55.38192-62.6905s6.46211-30.07483-14.124-45.56316C622.22127,354.76386,590.94669,355.24248,590.94669,355.24248Z" transform="translate(-27.07097 -20.66184)"/><path class="cls-4" d="M600.2869,478.42875v-.24332h0c0-.22726.01526-.47861.01526-.84721h0c-.01526-3.97588-.89379-17.69991-12.077-27.47136h0c-6.336-5.56751-18.0131-9.15953-29.02365-11.24584h0a205.52555,205.52555,0,0,0-25.62837-3.08932h0c-1.14514-.06263-1.77232-.09476-1.77232-.09476h0l-2.56492-.07789,60.69894-80.90034.32925-.518h.67456s.11,0,.29793-.01526h0c3.38.02329,32.39643.39189,52.3786,15.29962h0A37.108,37.108,0,0,1,656.39,386.97239h0a53.31062,53.31062,0,0,1,2.83877,18.02112h0a54.11535,54.11535,0,0,1-.97249,11.10451h0l-.06264.314-58.21272,65.8826.306-3.86586Zm-45.39853-43.25842c12.53955,2.07106,26.96952,5.72491,35.09386,12.72023h0c10.446,9.19165,12.5002,21.31522,12.88486,27.21278h0l52.87166-59.88305c.03942-.1333.07067-.25135.102-.39269h0c.0787-.5019.18872-1.27764.2988-2.19552h0a58.04067,58.04067,0,0,0,.48578-7.63857h0a51.80111,51.80111,0,0,0-2.72875-17.17391h0a34.65955,34.65955,0,0,0-11.85776-16.46885h0c-18.35118-13.818-45.89241-14.79851-50.39427-14.78244h0l-57.24827,76.35912c3.87389.23529,11.67708.81589,20.4921,2.2429Z" transform="translate(-27.07097 -20.66184)"/><path class="cls-5" d="M633.23985,445.75768s6.3834,6.21075,21.98977,12.89288c11.70037,5.003,33.64276,6.50868,33.64276,6.50868l5.25432-6.82267s-25.7697-2.55609-39.32108-8.21836c-13.56664-5.65424-15.245-11.41849-15.245-11.41849Z" transform="translate(-27.07097 -20.66184)"/><path class="cls-5" d="M623.92292,456.93285s6.36815,6.12482,22.0211,12.83747c11.71642,5.05035,33.61231,6.5408,33.61231,6.5408l5.27754-6.77609s-25.73036-2.56412-39.33635-8.281c-13.54415-5.59963-15.26909-11.41849-15.26909-11.41849Z" transform="translate(-27.07097 -20.66184)"/><path class="cls-5" d="M614.818,468.83s6.39143,6.132,21.98255,12.86076c11.73168,5.03509,33.64276,6.47816,33.64276,6.47816l5.25432-6.76s-25.73036-2.61953-39.28174-8.28983c-13.59073-5.60686-15.26909-11.3944-15.26909-11.3944Z" transform="translate(-27.07097 -20.66184)"/><path class="cls-5" d="M606.08971,478.48336s6.37617,6.15614,21.98977,12.88485c11.7638,5.05035,33.6275,6.47736,33.6275,6.47736l5.27039-6.76s-25.76168-2.59544-39.32912-8.24968c-13.55942-5.639-15.253-11.48113-15.253-11.48113Z" transform="translate(-27.07097 -20.66184)"/><path class="cls-5" d="M594.74991,485.59593s4.66649,7.278,23.44088,15.02577c11.81767,4.86244,33.68211,6.50145,33.68211,6.50145l5.23832-6.78332s-25.75364-2.53361-39.30509-8.2031c-13.56664-5.67753-15.22968-11.43375-15.22968-11.43375Z" transform="translate(-27.07097 -20.66184)"/><path class="cls-5" d="M581.62254,485.3767s2.11682,18.96229,28.57715,28.31054c16.41343,5.74016,33.65882,6.49342,33.65882,6.49342l5.24636-6.8307s-23.9822-1.851-37.39947-7.84976c-18.71175-8.40708-21.37866-20.26484-21.37866-20.26484Z" transform="translate(-27.07097 -20.66184)"/><path class="cls-5" d="M574.16386,481.69072s-5.17563,17.6453,21.54328,39.42308c14.20988,11.52048,39.42227,13.01013,39.42227,13.01013l4.65846-7.99913s-25.80819-2.48623-38.74851-9.48075c-22.05242-11.9204-22.217-32.53777-22.217-32.53777Z" transform="translate(-27.07097 -20.66184)"/><path class="cls-5" d="M560.00939,401.0337s32.341,1.223,47.85264,14.06854a64.98468,64.98468,0,0,1,20.1235,29.87086l-7.46591,8.21917s0-20.48407-21.80909-34.27878a74.41963,74.41963,0,0,0-44.30071-11.15911Z" transform="translate(-27.07097 -20.66184)"/><path class="cls-5" d="M551.19437,412.16149s32.32582,1.17646,47.85344,14.01394a65.32989,65.32989,0,0,1,20.13875,29.87166l-7.51328,8.25771s0-20.4921-21.85567-34.31812a74.19084,74.19084,0,0,0-44.16024-11.12779Z" transform="translate(-27.07097 -20.66184)"/><path class="cls-5" d="M542.88125,424.72513s32.875.5019,48.3714,13.33135a47.01277,47.01277,0,0,1,16.9073,29.581l-4.67372,5.48961s2.21159-18.19378-18.649-30.09089C564.10257,431.17117,536.42,431.657,536.42,431.657Z" transform="translate(-27.07097 -20.66184)"/><path class="cls-6" d="M563.94591,397.21442s31.90176-1.46636,46.62157,11.57509C625.31942,421.745,630.911,439.31164,630.911,439.31164l23.48745-24.77394s3.38731-24.83657-13.316-40.05025C624.347,359.21113,591.088,359.493,591.088,359.493Z" transform="translate(-27.07097 -20.66184)"/><polygon class="cls-1" points="571.773 339.882 571.867 342.109 574.18 342.674 571.985 343.521 572.165 345.748 570.675 343.992 568.526 344.877 569.742 342.94 568.252 341.231 570.503 341.811 571.773 339.882"/><polygon class="cls-1" points="607.973 353.92 608.137 356.162 610.357 356.68 608.2 357.496 608.38 359.754 606.867 358.029 604.694 358.845 605.934 356.931 604.443 355.284 606.702 355.786 607.973 353.92"/><polygon class="cls-1" points="576.917 345.105 577.09 347.317 579.333 347.881 577.169 348.728 577.325 350.947 575.835 349.215 573.67 350.022 574.926 348.132 573.427 346.422 575.709 346.956 576.917 345.105"/><polygon class="cls-1" points="588.963 349.771 589.144 351.991 591.394 352.539 589.183 353.386 589.355 355.606 587.888 353.904 585.747 354.688 586.924 352.838 585.489 351.128 587.747 351.653 588.963 349.771"/><polygon class="cls-1" points="599.801 353.622 599.942 355.849 602.201 356.414 600.083 357.26 600.225 359.457 598.703 357.731 596.546 358.594 597.77 356.68 596.295 354.955 598.538 355.535 599.801 353.622"/><polygon class="cls-1" points="613.274 360.24 613.439 362.476 615.72 362.97 613.493 363.832 613.635 366.091 612.168 364.382 610.043 365.213 611.235 363.307 609.792 361.535 612.027 362.123 613.274 360.24"/><polygon class="cls-1" points="619.799 373.227 619.995 375.455 622.214 376.003 620.081 376.819 620.237 379.039 618.732 377.36 616.584 378.184 617.799 376.317 616.332 374.537 618.591 375.11 619.799 373.227"/><polygon class="cls-1" points="585.528 343.223 585.67 345.481 587.928 346.047 585.764 346.893 585.912 349.089 584.414 347.38 582.242 348.179 583.489 346.328 582.03 344.587 584.273 345.121 585.528 343.223"/><polygon class="cls-1" points="597.229 346.909 597.354 349.113 599.659 349.677 597.464 350.516 597.589 352.743 596.099 351.018 593.943 351.834 595.213 349.975 593.715 348.226 595.974 348.791 597.229 346.909"/><polygon class="cls-1" points="620.081 366.758 620.27 369.008 622.496 369.557 620.316 370.373 620.481 372.6 618.983 370.922 616.811 371.713 618.042 369.808 616.584 368.146 618.81 368.655 620.081 366.758"/><polygon class="cls-1" points="623.798 381.25 623.971 383.485 626.214 384.034 624.033 384.881 624.19 387.085 622.669 385.367 620.536 386.199 621.767 384.348 620.316 382.607 622.559 383.171 623.798 381.25"/><polygon class="cls-1" points="563.774 344.321 563.93 346.532 566.158 347.082 564.009 347.913 564.158 350.179 562.699 348.407 560.527 349.23 561.735 347.348 560.276 345.662 562.503 346.172 563.774 344.321"/><polygon class="cls-1" points="579.803 350.626 579.945 352.838 582.203 353.402 580.023 354.28 580.211 356.445 578.674 354.751 576.58 355.559 577.796 353.669 576.313 351.936 578.533 352.501 579.803 350.626"/><polygon class="cls-1" points="569.742 351.175 569.899 353.402 572.181 353.951 570.024 354.782 570.126 357.01 568.667 355.3 566.511 356.131 567.71 354.217 566.252 352.508 568.534 353.057 569.742 351.175"/><polygon class="cls-1" points="583.411 356.712 583.583 358.907 585.81 359.457 583.638 360.366 583.795 362.515 582.282 360.844 580.125 361.652 581.372 359.754 579.897 358.029 582.171 358.57 583.411 356.712"/><polygon class="cls-1" points="594.084 363.581 594.241 365.809 596.491 366.334 594.358 367.204 594.469 369.401 592.994 367.675 590.814 368.514 592.053 366.64 590.594 364.899 592.805 365.463 594.084 363.581"/><polygon class="cls-1" points="600.742 368.655 600.898 370.875 603.173 371.44 600.962 372.317 601.079 374.482 599.628 372.773 597.487 373.588 598.664 371.713 597.229 369.98 599.463 370.53 600.742 368.655"/><polygon class="cls-1" points="611.831 373.792 612.004 376.003 614.285 376.561 612.082 377.415 612.27 379.619 610.757 377.933 608.616 378.756 609.839 376.834 608.333 375.125 610.623 375.651 611.831 373.792"/><polygon class="cls-1" points="592.131 356.664 592.304 358.861 594.546 359.457 592.382 360.28 592.524 362.499 591.018 360.805 588.861 361.597 590.085 359.715 588.634 357.966 590.892 358.547 592.131 356.664"/><polygon class="cls-1" points="602.044 361.275 602.216 363.511 604.507 364.083 602.31 364.867 602.475 367.134 600.993 365.385 598.797 366.232 600.013 364.334 598.578 362.617 600.852 363.174 602.044 361.275"/><polygon class="cls-1" points="609.964 366.311 610.09 368.491 612.364 369.071 610.192 369.878 610.333 372.113 608.827 370.42 606.671 371.212 607.91 369.306 606.467 367.628 608.702 368.162 609.964 366.311"/><polygon class="cls-1" points="615.924 381.32 616.05 383.571 618.34 384.12 616.176 384.96 616.301 387.139 614.78 385.446 612.646 386.261 613.885 384.394 612.38 382.661 614.654 383.234 615.924 381.32"/><polygon class="cls-1" points="561.61 352.774 561.75 355.065 564.017 355.567 561.876 356.398 562.001 358.625 560.496 356.931 558.323 357.716 559.571 355.865 558.103 354.108 560.339 354.68 561.61 352.774"/><polygon class="cls-1" points="574.878 356.351 575.02 358.586 577.278 359.19 575.114 360.021 575.301 362.279 573.772 360.538 571.6 361.307 572.863 359.432 571.396 357.716 573.631 358.249 574.878 356.351"/><polygon class="cls-1" points="565.161 358.468 565.295 360.742 567.585 361.307 565.421 362.185 565.546 364.382 564.072 362.656 561.891 363.424 563.099 361.573 561.625 359.88 563.899 360.421 565.161 358.468"/><polygon class="cls-1" points="578.925 363.385 579.145 365.628 581.34 366.193 579.176 367.04 579.348 369.243 577.866 367.55 575.709 368.31 576.917 366.467 575.451 364.757 577.709 365.283 578.925 363.385"/><polygon class="cls-1" points="588.744 369.918 588.923 372.137 591.174 372.71 589.025 373.525 589.159 375.721 587.692 374.043 585.489 374.843 586.759 372.945 585.246 371.275 587.488 371.769 588.744 369.918"/><polygon class="cls-1" points="595.535 373.854 595.692 376.074 597.935 376.678 595.817 377.446 595.943 379.658 594.484 377.964 592.272 378.795 593.527 376.898 592.037 375.203 594.288 375.737 595.535 373.854"/><polygon class="cls-1" points="602.899 380.991 603.032 383.219 605.29 383.767 603.157 384.598 603.299 386.826 601.808 385.132 599.667 385.947 600.867 384.058 599.424 382.324 601.629 382.873 602.899 380.991"/><polygon class="cls-1" points="587.269 363.22 587.488 365.487 589.747 366.044 587.551 366.844 587.724 369.087 586.195 367.362 584.062 368.185 585.324 366.311 583.842 364.553 586.053 365.087 587.269 363.22"/><polygon class="cls-1" points="605.055 373.752 605.228 376.003 607.471 376.49 605.338 377.36 605.463 379.595 604.005 377.886 601.824 378.709 603.064 376.819 601.581 375.078 603.824 375.611 605.055 373.752"/><polygon class="cls-1" points="608.96 381.313 609.164 383.571 611.407 384.144 609.228 384.96 609.368 387.17 607.894 385.477 605.73 386.253 606.985 384.348 605.494 382.685 607.729 383.219 608.96 381.313"/><polygon class="cls-1" points="621.006 388.394 621.132 390.669 623.438 391.194 621.241 392.025 621.414 394.244 619.908 392.551 617.713 393.335 618.967 391.484 617.509 389.727 619.752 390.292 621.006 388.394"/><polygon class="cls-1" points="571.208 362.821 571.396 365.009 573.631 365.621 571.459 366.436 571.6 368.632 570.126 366.938 567.962 367.746 569.216 365.871 567.71 364.178 570.001 364.695 571.208 362.821"/><polygon class="cls-1" points="581.34 369.118 581.497 371.298 583.74 371.863 581.591 372.686 581.732 374.937 580.211 373.181 578.046 374.027 579.301 372.145 577.827 370.42 580.085 370.953 581.34 369.118"/><polygon class="cls-1" points="552.316 359.534 552.465 361.715 554.692 362.279 552.559 363.111 552.701 365.338 551.226 363.613 549.031 364.397 550.316 362.539 548.811 360.829 551.101 361.385 552.316 359.534"/><polygon class="cls-1" points="561.233 364.515 561.374 366.758 563.656 367.322 561.483 368.146 561.61 370.341 560.166 368.655 557.963 369.479 559.194 367.62 557.759 365.871 559.978 366.389 561.233 364.515"/><polygon class="cls-1" points="572.181 370.278 572.361 372.475 574.62 373.039 572.447 373.854 572.604 376.09 571.09 374.372 568.918 375.251 570.188 373.321 568.691 371.596 570.949 372.113 572.181 370.278"/><polygon class="cls-1" points="597.809 388.708 598.013 390.951 600.209 391.5 598.076 392.323 598.201 394.542 596.727 392.849 594.578 393.664 595.77 391.758 594.342 390.049 596.562 390.59 597.809 388.708"/><polygon class="cls-1" points="612.074 397.914 612.223 400.126 614.474 400.675 612.294 401.498 612.458 403.749 610.953 402.008 608.788 402.847 610.028 400.957 608.537 399.224 610.811 399.797 612.074 397.914"/><polygon class="cls-1" points="586.453 374.968 586.547 377.227 588.814 377.768 586.657 378.607 586.799 380.866 585.293 379.109 583.152 379.941 584.414 378.042 582.932 376.294 585.199 376.882 586.453 374.968"/><polygon class="cls-1" points="595.15 382.12 595.315 384.316 597.574 384.881 595.425 385.697 595.566 387.955 594.061 386.23 591.88 387.03 593.135 385.132 591.622 383.438 593.888 383.971 595.15 382.12"/><polygon class="cls-1" points="606.325 388.426 606.483 390.669 608.726 391.218 606.577 392.064 606.725 394.276 605.212 392.566 603.032 393.413 604.287 391.484 602.773 389.759 605.055 390.308 606.325 388.426"/><polygon class="cls-1" points="613.227 390.065 613.383 392.299 615.658 392.849 613.477 393.68 613.603 395.875 612.113 394.166 609.933 395.013 611.188 393.099 609.714 391.374 611.956 391.939 613.227 390.065"/><polygon class="cls-1" points="553.853 366.592 553.986 368.828 556.245 369.369 554.081 370.208 554.222 372.427 552.716 370.726 550.568 371.557 551.776 369.667 550.301 367.942 552.575 368.467 553.853 366.592"/><polygon class="cls-1" points="565.358 370.938 565.515 373.133 567.773 373.698 565.585 374.498 565.711 376.78 564.236 375.047 562.064 375.831 563.287 373.956 561.821 372.263 564.119 372.757 565.358 370.938"/><polygon class="cls-1" points="578.878 375.11 579.019 377.36 581.238 377.886 579.05 378.756 579.27 380.991 577.748 379.235 575.584 380.05 576.823 378.184 575.333 376.49 577.56 377.023 578.878 375.11"/><polygon class="cls-1" points="588.006 381.838 588.132 384.081 590.414 384.677 588.21 385.462 588.398 387.688 586.893 385.963 584.744 386.795 585.967 384.896 584.477 383.155 586.72 383.713 588.006 381.838"/><polygon class="cls-1" points="601.212 396.723 601.354 398.934 603.612 399.499 601.448 400.315 601.581 402.573 600.107 400.817 597.903 401.648 599.166 399.789 597.684 398.04 599.926 398.605 601.212 396.723"/><polygon class="cls-1" points="605.902 403.357 606.106 405.616 608.333 406.165 606.184 406.98 606.31 409.2 604.836 407.498 602.624 408.321 603.895 406.463 602.389 404.706 604.694 405.271 605.902 403.357"/><path class="cls-5" d="M576.61073,476.82828a19.404,19.404,0,0,0,8.7283,3.56071,30.00557,30.00557,0,0,0,14.17936-2.00762s.102-2.03893.11724-2.66611c0-.83115-.2899-3.13749-.2899-3.13749s-5.8815,2.76087-11.08924,1.953c-5.215-.88576-6.48539-2.81547-6.48539-2.81547Z" transform="translate(-27.07097 -20.66184)"/><path class="cls-5" d="M584.516,467.81009a14.92945,14.92945,0,0,0,5.98342,2.43082c5.50568.78457,8.12441-.78377,8.12441-.78377a8.65846,8.65846,0,0,0-.17185-1.961c-.18872-.58783-.53316-1.87431-.53316-1.87431s-1.87437,1.15318-5.45836.60389c-3.52938-.56454-4.3766-1.88153-4.3766-1.88153Z" transform="translate(-27.07097 -20.66184)"/><path class="cls-4" d="M494.94991,710.33927c-.50592-1.14515-.90985-1.88234-1.09375-2.30555h0l-.04738-.02409-.47855-.7918a46.455,46.455,0,0,0-7.33266-9.3635h0c-3.5486-3.73336-14.931-9.77145-30.23946-14.98642h0A366.76022,366.76022,0,0,0,399.667,668.71263h0c-22.61375-3.96864-53.959-16.34356-80.44582-36.545h0c-26.33425-20.09218-48.15137-48.434-48.70065-84.06916h0q-.047-1.34069-.04658-2.44607h0c.04658-34.03545,10.37132-68.4395,21.20922-98.483h0c10.8146-29.94956,22.24032-55.9385,24.67515-71.08232h0a43.49466,43.49466,0,0,0,.61594-7.24587h0c.22726-22.43707-18.15524-41.12473-22.71888-45.06125h0c-.6585-.61193-.88662-.77655-.88662-.77655h0l-4.701-3.82731,46.86891-58.83267,4.35652,1.93694c.07468.03212,42.889,19.6216,80.08846,35.46327h0C452.39014,311.57692,494.3501,313.03605,501.314,313.13h0c12.53954-.07869,46.55492-1.19252,79.88449-15.41043h0c37.2661-15.75493,80.03787-35.34441,80.14789-35.34441h0l4.31315-2.00038,46.84963,58.90334-4.66649,3.82731a6.63788,6.63788,0,0,0-.84634.76851h0c-.68259.54848-1.62383,1.427-2.75291,2.55609h0a82.49226,82.49226,0,0,0-8.27377,9.78751h0c-6.04606,8.3597-11.80235,19.85609-11.771,32.72569h0a42.53665,42.53665,0,0,0,.59586,7.22258h0l-6.03809,1.00381,6.03809-1.00381c2.43891,15.13579,13.77142,41.13276,24.67195,71.09758h0c10.79854,30.00416,21.1265,64.41624,21.14256,98.483h0c0,.78378.01526,1.55229-.03935,2.31358h0c-.56454,35.76842-22.35837,64.12554-48.71591,84.20166h0C655.3549,652.40038,623.9703,664.7994,601.3686,668.752h0a365.37853,365.37853,0,0,0-56.13443,14.09183h0C529.95785,688.12946,518.5514,694.0744,515.01,697.831h0a40.15472,40.15472,0,0,0-7.15995,9.10412h0l-1.89759,3.686h0l-5.76827,10.93265-5.23425-11.21452ZM329.16131,368.87256a50.87864,50.87864,0,0,1-.75326,9.22217h0c-3.09734,18.0685-14.57044,43.58766-25.24371,73.24652h0c-10.67327,29.487-20.48005,62.76116-20.46881,94.31842h0c0,.77654.01606,1.41175.04738,2.11763h0c.33326,30.51409,19.135,55.81322,43.88479,74.68156h0c24.586,18.837,54.82146,30.74136,75.16821,34.23942h0a375.70773,375.70773,0,0,1,58.00071,14.6098h0C475.99484,677.025,487.9313,682.6559,494.66,689.212h0a59.17227,59.17227,0,0,1,5.83011,6.72871h0a55.80311,55.80311,0,0,1,5.8823-6.72871h0c6.69257-6.55606,18.69167-12.15569,34.87784-17.84847h0A372.55763,372.55763,0,0,1,599.267,656.74486h0c20.3347-3.52858,50.55086-15.38634,75.12885-34.23862h0c24.76591-18.837,43.57161-44.10483,43.96356-74.627h0a18.75324,18.75324,0,0,0,0-2.10157h0c.03125-31.63595-9.74823-64.87076-20.4134-94.39711h0c-10.6107-29.65966-22.10708-55.13867-25.21246-73.2385h0a59.8725,59.8725,0,0,1-.73719-9.23822h0c.23529-24.93053,15.80954-43.32829,23.71471-51.16279h0l-33.65882-42.2779c-11.88908,5.35631-45.81451,20.64869-76.09331,33.53354h0c-35.83106,15.22172-71.34893,16.24158-84.68429,16.33554h0c-7.90116-.14134-50.64884-1.39569-86.04545-16.38211h0c-30.32538-12.83828-64.23154-28.21659-76.03389-33.54158h0L305.5012,317.64713c7.84173,7.82648,23.40474,26.28687,23.66011,51.22543Z" transform="translate(-27.07097 -20.66184)"/><path class="cls-4" d="M393.41614,335.87223a8.59563,8.59563,0,1,1,17.07674,1.33306,9.89873,9.89873,0,0,1,.85123,1.29451L552.71539,523.33341l-8.9789,5.97546L401.67069,344.49854v-.03935A8.58551,8.58551,0,0,1,393.41614,335.87223Z" transform="translate(-27.07097 -20.66184)"/><path class="cls-1" d="M372.29365,418.247s-7.70522,26.36556-26.33821,31.35328c-18.63712,4.98771-43.14846,9.99148-43.14846,9.99148l64.94545,84.11573s32.30649-2.72955,54.08426-23.18149c21.82522-20.44472,10.9279-40.48952,10.9279-40.48952Z" transform="translate(-27.07097 -20.66184)"/><path class="cls-4" d="M300.32156,458.65056l2.19151-.43926s1.541-.28268,4.09794-.89379h0c2.58018-.50994,6.27338-1.27042,10.48857-2.22765h0c8.43036-1.87431,19.20963-4.36053,28.49845-6.83793h0c8.19186-2.19632,14.348-8.94029,18.53186-15.54373h0a70.239,70.239,0,0,0,6.78734-14.57045h0a1.26217,1.26217,0,0,1,.06264-.314h0l.67455-2.29028,62.26328,63.69511.03935.15659a28.86432,28.86432,0,0,1,2.90542,13.23739h0c.02328,7.87385-2.90542,18.44514-14.08461,28.91443h0c-22.323,20.85267-54.78211,23.4722-54.88409,23.48746h0l-.79984.08673-66.77237-86.46063ZM368.40771,542.217a2.57,2.57,0,0,1,.61118-.08592h0c.93709-.12528,2.25489-.322,3.91-.57257h0a111.45743,111.45743,0,0,0,13.296-3.15276h0c10.658-3.19933,23.97416-8.92424,34.64737-18.91572h0c10.65319-9.99068,13.194-19.68343,13.21009-26.86747h0a27.23872,27.23872,0,0,0-2.4782-11.71562h0L372.9128,420.89782a72.80238,72.80238,0,0,1-5.57554,11.84973h0c-4.36054,7.33983-11.13984,15.51161-21.00926,18.21707h0c-15.36707,4.09392-34.65139,8.2031-41.06611,9.53616h0L368.40771,542.217Zm2.91747-123.01281.96847-.95723-.96847.95723Z" transform="translate(-27.07097 -20.66184)"/><path class="cls-1" d="M399.137,464.5947l5.0118,18.19378s3.88915,3.22342,15.26026,3.24671c11.372,0,13.3555-5.99874,13.3555-5.99874L407.9914,454.698Z" transform="translate(-27.07097 -20.66184)"/><path class="cls-4" d="M419.39389,487.42366c-11.63377.02329-15.9156-3.33344-16.167-3.576h0l-.33326-.25938-5.0897-18.617-.2393-.72194,10.42673-11.63773L434.357,479.68311l-.24327.78457a8.56767,8.56767,0,0,1-2.93278,3.686h0c-2.18026,1.72494-5.8309,3.27-11.73248,3.27h-.05455Zm-13.79476-5.37237a10.33951,10.33951,0,0,0,2.32562,1.05118h0a36.8693,36.8693,0,0,0,11.46914,1.57638h0c5.121-.02329,8.04565-1.2937,9.7481-2.4782h0a6.81317,6.81317,0,0,0,1.90563-1.89036h0l-23.02484-23.6047-7.35194,8.24968,4.6778,16.95548c.07783.06264.1485.14054.25049.14054Z" transform="translate(-27.07097 -20.66184)"/><path class="cls-1" d="M413.9002,350.28609l63.94967,84.25707s-44.75931,1.71771-60.98161,15.975c-14.57045,12.72023-13.22535,31.31393-13.22535,31.31393l-58.554-66.30581s-6.81143-31.83189,14.98241-48.19875C381.90776,350.93736,413.9002,350.28609,413.9002,350.28609Z" transform="translate(-27.07097 -20.66184)"/><path class="cls-4" d="M343.77919,416.16146l-.07474-.35334a59.20877,59.20877,0,0,1-1.02308-11.73971h0a57.08773,57.08773,0,0,1,3.05-19.10364h0a39.00586,39.00586,0,0,1,13.5281-18.74306h0c22.307-16.70414,54.5155-17.34657,54.60951-17.34657h0l.77649-.03213,65.9372,86.98662-2.65406.06264s-.69463,0-1.88234.11h0c-1.32582.07789-3.0861.2112-5.30892.4232h0c-4.44727.37663-10.4701.98775-17.06471,2.14895h0c-13.14825,2.149-28.24389,6.21075-35.87442,13.0021h0c-11.8417,10.27335-12.78286,24.79722-12.78286,29.00839h0c0,.424-.0241.72194,0,.90182h0v.24332h0l.29792,4.17985-61.534-69.74846Zm58.53067,62.03923c.36859-6.226,2.56813-19.07232,13.606-28.757h0c8.6263-7.43459,23.99738-11.35585,37.31347-13.64534h0c9.43016-1.59966,17.8646-2.259,21.90706-2.52557h0L413.273,351.72113a3.58537,3.58537,0,0,0-.6866.04738h0c-.92109.008-2.24611.11-3.88513.2899h0a131.70876,131.70876,0,0,0-13.24616,1.953h0c-10.61391,2.20356-23.90269,6.43881-34.50931,14.46926h0a36.21823,36.21823,0,0,0-12.56765,17.40921h0a54.521,54.521,0,0,0-2.93272,18.17853h0a66.082,66.082,0,0,0,.82714,10.39862h0c0,.14937.08673.29071.08673.416h0l55.95054,63.31768Z" transform="translate(-27.07097 -20.66184)"/><path class="cls-4" d="M465.059,368.78583l-4.50509-.00723-.02-26.4282a19.52472,19.52472,0,0,1-4.26584,2.88534,30.08815,30.08815,0,0,1-4.74037,2.11763l-.01606-3.97588a27.00971,27.00971,0,0,0,6.63074-3.97587,15.76077,15.76077,0,0,0,4.03048-4.50187l2.90943.01606Z" transform="translate(-27.07097 -20.66184)"/><path class="cls-4" d="M477.30461,360.98345l4.37257-.424a7.07008,7.07008,0,0,0,2.09354,4.18788,6.647,6.647,0,0,0,4.01523,1.19252,7.68984,7.68984,0,0,0,3.63458-.84721,8.87375,8.87375,0,0,0,2.57623-2.30555,13.04657,13.04657,0,0,0,1.69442-3.96864,20.59888,20.59888,0,0,0,.6585-5.08167c0-.17266-.01532-.45452-.01532-.83918a9.9922,9.9922,0,0,1-3.682,3.20736,11.34108,11.34108,0,0,1-12.84631-1.81087,10.66193,10.66193,0,0,1-3.12465-7.9919,10.47,10.47,0,0,1,3.29008-8.21836,11.4413,11.4413,0,0,1,8.21836-3.18407,12.78686,12.78686,0,0,1,6.61869,1.80364,11.60487,11.60487,0,0,1,4.52918,5.011c1.02308,2.21961,1.5563,5.341,1.53307,9.49761a29.16469,29.16469,0,0,1-1.53709,10.336,12.6313,12.6313,0,0,1-4.56049,5.81886,12.46935,12.46935,0,0,1-7.10133,1.99958,11.06991,11.06991,0,0,1-7.04993-2.1883A9.08807,9.08807,0,0,1,477.30461,360.98345Zm18.53507-14.91656a7.58717,7.58717,0,0,0-2.07025-5.62292,6.82451,6.82451,0,0,0-4.97968-2.09354,6.94023,6.94023,0,0,0-5.24629,2.22684,7.99607,7.99607,0,0,0-2.25087,5.851,6.9528,6.9528,0,0,0,2.13282,5.24629,7.68089,7.68089,0,0,0,10.40666,0A7.44261,7.44261,0,0,0,495.83968,346.06689Z" transform="translate(-27.07097 -20.66184)"/><path class="cls-4" d="M529.00062,364.84127l.03131,3.96865-24.362-.02409a7.51447,7.51447,0,0,1,.49468-2.846,14.45817,14.45817,0,0,1,3.05-4.50187,40.05915,40.05915,0,0,1,5.86223-5.12905A46.20265,46.20265,0,0,0,522.19,349.157a8.11372,8.11372,0,0,0,2.14494-4.98771,5.43782,5.43782,0,0,0-1.96506-4.13247,8.3927,8.3927,0,0,0-10.19465.0779,6.50954,6.50954,0,0,0-2.00761,4.97968l-4.64642-.39188a10.0744,10.0744,0,0,1,3.61932-7.27c2.0823-1.67756,4.83032-2.50148,8.34043-2.50148a12.17913,12.17913,0,0,1,8.391,2.72151,8.2236,8.2236,0,0,1,3.066,6.642,9.4642,9.4642,0,0,1-.88978,3.9839,14.56763,14.56763,0,0,1-3.00017,4.09393,76.28373,76.28373,0,0,1-6.97525,5.97545,51.96054,51.96054,0,0,0-5.17235,4.25052,12.30836,12.30836,0,0,0-1.95628,2.19633Z" transform="translate(-27.07097 -20.66184)"/><path class="cls-4" d="M540.78771,350.49006a8.3544,8.3544,0,0,1-4.13321-2.71349,6.33772,6.33772,0,0,1-1.34838-4.12444,7.81744,7.81744,0,0,1,2.87009-6.21958,11.72556,11.72556,0,0,1,7.69316-2.54083,11.52992,11.52992,0,0,1,7.74055,2.60427,8.04611,8.04611,0,0,1,2.93272,6.226,6.30986,6.30986,0,0,1-1.333,4.09392,8.09262,8.09262,0,0,1-4.06983,2.68217,10.0792,10.0792,0,0,1,5.13627,3.27,8.18981,8.18981,0,0,1,1.78838,5.36434,9.20292,9.20292,0,0,1-3.38,7.27,14.45376,14.45376,0,0,1-17.55938,0,9.30487,9.30487,0,0,1-3.32461-7.36392,8.19666,8.19666,0,0,1,1.81167-5.49764A9.219,9.219,0,0,1,540.78771,350.49006Zm-2.36015,8.56367a8.00347,8.00347,0,0,0,.89379,3.46674,6.41348,6.41348,0,0,0,2.80744,2.57216,8.39565,8.39565,0,0,0,3.85863.8705,7.7477,7.7477,0,0,0,5.34828-1.89037,6.55694,6.55694,0,0,0-.0787-9.77868,7.52557,7.52557,0,0,0-5.44223-2.00038,7.35461,7.35461,0,0,0-5.27039,1.961A6.31255,6.31255,0,0,0,538.42756,359.05373Zm1.49768-15.57425a5.12294,5.12294,0,0,0,1.67033,3.93652,6.25215,6.25215,0,0,0,4.39185,1.49045,5.95129,5.95129,0,0,0,4.22643-1.51373,4.646,4.646,0,0,0,1.67033-3.67072,4.75661,4.75661,0,0,0-1.69362-3.81125,6.11415,6.11415,0,0,0-4.2979-1.59164,6.28929,6.28929,0,0,0-4.28183,1.50571A4.78983,4.78983,0,0,0,539.92524,343.47948Z" transform="translate(-27.07097 -20.66184)"/><path class="cls-1" d="M502.839,530.862s-6.52875-13.15147-27.00479-15.37108c-20.45275-2.16421-44.57134,18.27248-57.74615,21.89582l-13.14745,3.65385-30.71,93.52662,7.30444,4.39185,119.85685.03132Z" transform="translate(-27.07097 -20.66184)"/><path class="cls-7" d="M374.23065,634.56717l7.30444,4.39185H501.38477l-.2474-9.011s-31.67128-12.94749-48.57457-10.48455c-16.86475,2.54083-21.57782,11.15108-48.99457,13.8726A220.51088,220.51088,0,0,1,374.23065,634.56717Z" transform="translate(-27.07097 -20.66184)"/><path class="cls-4" d="M381.1432,640.37077l-8.57571-5.215,31.26339-95.213.74115-.25055,13.13547-3.63137h0c11.94764-3.23065,34.49794-22.04438,54.99807-22.13834h0a23.5399,23.5399,0,0,1,3.262.204h0c21.07992,2.25014,28.02867,15.85693,28.12985,16.10748h0l-1.25837.628,1.25837-.628.13016.29793-1.45117,109.87018-121.63318-.03132Zm-5.26235-6.49342,6.00356,3.592,118.08854.08593,1.431-106.27817a24.25437,24.25437,0,0,0-5.28564-6.18746h0c-4.03851-3.42659-10.50463-7.10534-20.42866-8.2031h0a22.609,22.609,0,0,0-2.98411-.14856h0c-19.00968-.08673-41.22672,18.26445-54.26495,22.02109h0c-8.15171,2.28145-11.26511,3.12866-12.3942,3.42659h0l-30.16557,91.69166Z" transform="translate(-27.07097 -20.66184)"/><path class="cls-4" d="M374.22262,633.13213c.07061-.05461,43.0849-.05461,63.687-10.752h0c5.36755-2.79138,11.865-3.82651,18.58165-3.82651h0c21.18191-.01606,45.06928,10.06938,45.16324,10.06938h0l-1.1331,2.60347s-5.93209-2.47819-14.3745-4.96442h0c-8.501-2.47017-19.49953-4.96362-29.64761-4.92427h0c-6.446.00723-12.52423,1.011-17.35856,3.53661h0c-21.78987,11.1832-64.81621,11.06515-64.89491,11.07318h0l-.02323-2.81547Z" transform="translate(-27.07097 -20.66184)"/><path class="cls-1" d="M501.56057,528.95633s4.95238-11.25387,25.3971-13.43413c20.472-2.17224,44.56337,18.27248,57.73892,21.91107l13.0808,3.6386,30.71,93.55794-7.34063,4.34527-119.762-.01606Z" transform="translate(-27.07097 -20.66184)"/><path class="cls-7" d="M629.23988,634.62981l-7.27719,4.40791-119.84882-.0787.306-9.00294s31.65523-12.9242,48.50792-10.454c16.86883,2.54163,21.56577,11.12859,48.96653,13.88143A216.33364,216.33364,0,0,0,629.23988,634.62981Z" transform="translate(-27.07097 -20.66184)"/><path class="cls-4" d="M499.95689,640.386l.23937-111.42247v-.28187l.14931-.26661c.04657-.29793,5.46954-12.093,26.45557-14.28858h0a28.43983,28.43983,0,0,1,3.29724-.204h0c20.476.11725,43.00706,18.947,54.974,22.19375h0l13.08882,3.61531h0l.71391.17988,31.228,95.315-8.54841,5.17562L499.95689,640.386Zm2.81949-2.83073,118.04117.01526,5.97626-3.59925-30.09893-91.73824c-1.137-.34531-4.23445-1.20778-12.42952-3.49806h0c-13.04225-3.686-35.18862-22.06767-54.18224-22.0211h0a21.5529,21.5529,0,0,0-2.95273.18872h0c-10.01082,1.0817-16.04089,4.29709-19.64094,7.23784h0a16.60706,16.60706,0,0,0-4.4858,5.1684h0l-.22727,108.24643Z" transform="translate(-27.07097 -20.66184)"/><path class="cls-4" d="M563.56126,624.85113c-4.77571-2.45491-10.80658-3.49-17.16669-3.4274h0c-20.3074-.06263-43.97474,9.95937-44.006,10.00675h0l-1.13718-2.58822c.102,0,24.02469-10.226,45.15923-10.242h0c6.63475-.03132,13.03341,1.01986,18.41381,3.82731h0c20.57,10.70459,63.553,10.84592,63.64693,10.74394h0l-.02329,2.8235c-.0787-.05541-43.10905.06987-64.88682-11.14385Z" transform="translate(-27.07097 -20.66184)"/><path class="cls-8" d="M308.022,461.458l31.61266,41.68927s26.09092-5.48962,38.46986-15.10447c12.35163-9.5988,14.6652-15.59032,14.6652-15.59032l-28.86383-33.89411s-5.4856,9.19165-19.68745,15.11973C337.23833,456.58754,308.022,461.458,308.022,461.458Z" transform="translate(-27.07097 -20.66184)"/><path class="cls-8" d="M348.20953,414.12253l28.09533,33.15692s-.49066-26.54626,16.884-40.27832c17.42929-13.7393,45.356-14.68047,45.356-14.68047l-27.9026-36.67023s-33.79293,3.60727-45.94059,13.84128C344.12043,386.94107,348.20953,414.12253,348.20953,414.12253Z" transform="translate(-27.07097 -20.66184)"/><path class="cls-6" d="M342.35533,505.89208l13.72806,17.42527s25.62435-4.78374,38.04264-14.22594c15.10447-11.41046,21.99379-21.0486,21.99379-21.0486s-10.10465-1.27042-11.95573-2.72875c-.40393-.36057-8.65361-9.65421-8.65361-9.65421S385.89562,488.50536,376.716,494.011C367.52523,499.49262,342.35533,505.89208,342.35533,505.89208Z" transform="translate(-27.07097 -20.66184)"/><path class="cls-5" d="M357.9071,525.60764l11.453,15.08841s28.29929-4.47778,45.82655-17.84125c25.20115-19.26023,16.95067-38.01936,16.95067-38.01936L418.374,488.04281a115.51747,115.51747,0,0,1-22.42829,22.00583C381.95508,520.1646,357.9071,525.60764,357.9071,525.60764Z" transform="translate(-27.07097 -20.66184)"/><path class="cls-6" d="M377.62587,448.68317l12.387,13.76258h0c-.01526-.12527,2.78817-25.2678,20.16211-34.34864,17.39068-9.18362,45.79116-12.86959,45.79116-12.86959l-17.42125-21.08716s-30.94935,2.93272-43.96028,15.135C378.55178,424.37982,377.62587,448.68317,377.62587,448.68317Z" transform="translate(-27.07097 -20.66184)"/><path class="cls-5" d="M392.29916,463.76355l9.60275,11.90433s-2.74079-17.38592,17.42125-31.58054c20.14685-14.18659,51.77076-10.9712,51.77076-10.9712l-13.76345-16.01432s-36.65016,5.92888-51.30727,17.84928A37.3169,37.3169,0,0,0,392.29916,463.76355Z" transform="translate(-27.07097 -20.66184)"/><path class="cls-5" d="M411.39069,460.94s-2.61552,1.961-4.27782,8.93227a57.3291,57.3291,0,0,0-.99176,11.83447,34.40927,34.40927,0,0,0,12.75476,1.96023c7.49722-.26661,11.57187-3.64662,11.57187-3.64662Z" transform="translate(-27.07097 -20.66184)"/><path class="cls-2" d="M550.64508,579.15386c-7.21455,0-13.3-1.14434-15.08841-3.66991l13.42611,31.8865s.34531,1.96826,1.6623,1.97629c1.28648-.008,1.69443-2.00761,1.69443-2.00761l13.47268-31.82386C564.02461,578.00952,557.907,579.16992,550.64508,579.15386Z" transform="translate(-27.07097 -20.66184)"/><path class="cls-2" d="M555.46014,544.162c-7.28522,9.4422-5.91282-2.58019-2.27422-3.73256,3.71729-1.16843-7.10454-3.36475-12.24885,3.19934-5.89756,7.43458-1.72574,11.967-1.72574,11.967s-4.59583.76851-4.30512-2.71349c.25858-3.474-3.45872,3.18407-2.17224,8.32115a16.74474,16.74474,0,0,0,3.584,6.62673s3.66188,4.815,13.30806,4.46171c9.614-.49387,14.42188-4.595,14.42188-4.595s4.89376-3.08208,2.41562-9.45023c-2.6902-6.854.0152-16.46884,7.86576-16.70414C582.09312,541.40192,562.71485,534.71979,555.46014,544.162Zm7.74858,2.08631a14.78154,14.78154,0,0,0-.89379,12.68891c1.86628,4.92427-5.58431,9.48878-13.30083,9.83409a4.0911,4.0911,0,0,0-.87853-.03132c-6.73594.01526-9.28481-3.09012-9.36351-3.20014l-.03131-.07789-.08593-.01606a13.65764,13.65764,0,0,1-2.69823-5.09773,9.82486,9.82486,0,0,1,0-3.45068,8.29012,8.29012,0,0,0,7.69317.23529s-4.83032-5.58357-.89379-10.58654a9.72727,9.72727,0,0,1,6.32077-3.23146,8.2728,8.2728,0,0,0-1.08974,4.92508,2.63411,2.63411,0,0,0,2.54887,2.58821c1.47439-.008,2.99536-1.19172,5.019-3.81125,2.50148-3.26277,7.08125-3.74058,9.55951-3.71729.33728-.01606.65046-.01606.90175-.02329A9.14012,9.14012,0,0,0,563.20872,546.2483Z" transform="translate(-27.07097 -20.66184)"/><path class="cls-2" d="M550.36321,574.08826c-7.79515-.01606-14.37524-2.08631-16.28815-4.86244a2.87759,2.87759,0,0,0-.56535,1.647c0,3.66992,7.5679,6.60264,16.86882,6.57132,9.33213,0,16.87673-2.9014,16.86067-6.52474a3.07754,3.07754,0,0,0-.55651-1.67756C564.77713,571.98669,558.18969,574.0722,550.36321,574.08826Z" transform="translate(-27.07097 -20.66184)"/><path class="cls-2" d="M472.75214,594.52494a7.53494,7.53494,0,0,1-3.686-1.65507L449.0294,578.43273l20.05283-14.3986a7.65867,7.65867,0,0,1,3.694-1.65427,3.32125,3.32125,0,0,1,2.5328,1.631l.78785-.52519-6.72878-9.28561-.76048.49387c.8432,1.16843,1.10579,2.11763.79186,2.97287a7.635,7.635,0,0,1-2.81868,2.97207l-18.90368,13.48071v-9.85014a9.27279,9.27279,0,0,0,2.60341.306c3.63458.02329,6.43085-.66653,8.3597-2.11763a7.06635,7.06635,0,0,0,2.90943-6.06942,7.65936,7.65936,0,0,0-3.34462-6.54883c-2.22369-1.70165-5.24234-2.57215-9.02623-2.52477l-9.35232-.01606.012.89459a3.2787,3.2787,0,0,1,2.83475,1.13711,7.74607,7.74607,0,0,1,.78859,3.97588v21.15059L424.18962,560.6228c-1.61975-1.15237-2.54084-2.12486-2.81949-2.956a3.21471,3.21471,0,0,1,.81187-2.94878l-.78853-.54928-6.69739,9.31693.74918.54847a3.2755,3.2755,0,0,1,2.51755-1.67836,7.43287,7.43287,0,0,1,3.74058,1.67836l20.00144,14.3986-20.00947,14.39056a7.32779,7.32779,0,0,1-3.72131,1.68559c-.86649.04738-1.68961-.53322-2.50149-1.68559l-.74843.56454,6.66934,9.35547.77247-.56454a3.16061,3.16061,0,0,1-.77247-2.9014,6.96928,6.96928,0,0,1,2.73351-2.98813l19.31885-13.8726v17.98981a6.68573,6.68573,0,0,1-.79984,3.82732,3.22551,3.22551,0,0,1-2.84673,1.13711l.01606.93314h11.48107v-.93314a3.245,3.245,0,0,1-2.83956-1.05922c-.53322-.76048-.7797-2.05419-.72515-4.03048l-.03935-17.55135L466.62009,596.266a7.45145,7.45145,0,0,1,2.73678,2.99535,3.24248,3.24248,0,0,1-.75727,2.91746l.75727.56454,6.72068-9.3635-.78457-.55651C474.49716,593.97566,473.64272,594.60364,472.75214,594.52494Zm-25.03572-46.02651,1.59967.008a7.274,7.274,0,0,1,5.68154,2.259,8.19581,8.19581,0,0,1,2.12164,5.69359,6.72662,6.72662,0,0,1-2.12164,5.08167,8.3842,8.3842,0,0,1-5.66227,1.835c-1.56835-.03132-1.50565-.48665-1.61894-.5806Z" transform="translate(-27.07097 -20.66184)"/><path class="cls-4" d="M448.4769,802.532c-9.39883-.01526-15.551-3.29329-18.47645-9.78671-1.753-3.92127-2.59946-11.20649-2.59946-21.81712-.04336-10.74394.87773-17.9585,2.63078-21.89582,2.90146-6.47736,9.08565-9.70079,18.42506-9.70079q18.60453-.03492,17.818,20.33471l-12.53955-.03132c-.004-4.05377-.42-6.91663-1.17244-8.64157a4.29176,4.29176,0,0,0-4.106-2.52558c-3.35191.01607-5.62292,1.78839-6.76325,5.333-.91386,2.956-1.35313,8.65762-1.35313,17.12734-.01921,8.44562.42722,14.1633,1.34109,17.08,1.13717,3.57676,3.42338,5.36434,6.80667,5.341,2.49821,0,4.18386-1.41979,5.07839-4.38382a48.98813,48.98813,0,0,0,.72917-8.04651h12.65357c-.02409,7.92123-1.58039,13.55138-4.72511,16.93942C459.28749,800.97171,454.715,802.51677,448.4769,802.532Z" transform="translate(-27.07097 -20.66184)"/><path class="cls-4" d="M482.18632,801.55954l-12.64957-.06264,16.99805-61.20085,16.86475.04738,16.55878,61.15347-13.43333-.01526-3.43141-13.53612L485.649,787.9142Zm18.19779-22.99278L494.24,752.10643h-.17667l-5.83412,26.44427Z" transform="translate(-27.07097 -20.66184)"/><path class="cls-4" d="M557.16982,801.52822l-31.94512-.03132-.012-61.12215,12.799-.01526v50.97407l19.14292-.03131Z" transform="translate(-27.07097 -20.66184)"/><path class="cls-4" d="M574.70511,801.52822,561.907,801.4969V740.34343h12.76681Z" transform="translate(-27.07097 -20.66184)"/></svg>